<svg width="1280" height="480" viewBox="0 0 640 240" xmlns="http://www.w3.org/2000/svg"><ellipse cx="320" cy="233" rx="212" ry="8" fill="#F7D4E1"/><path d="M320.0 228.0 Q317.1 195.0 320.0 168.1" fill="none" stroke="#8C6A5D" stroke-width="16.1" stroke-linecap="round"/><path d="M320.0 168.1 Q348.9 140.6 388.5 135.0" fill="none" stroke="#8C6A5D" stroke-width="9.5" stroke-linecap="round"/><path d="M388.5 135.0 Q415.6 123.2 444.6 129.4" fill="none" stroke="#8C6A5D" stroke-width="6.3" stroke-linecap="round"/><path d="M444.6 129.4 Q464.1 120.9 484.9 125.3" fill="none" stroke="#8C6A5D" stroke-width="4.1" stroke-linecap="round"/><path d="M484.9 125.3 Q493.0 126.5 498.9 132.1" fill="none" stroke="#A98B7E" stroke-width="2.7" stroke-linecap="round"/><path d="M484.9 125.3 Q490.2 118.4 498.5 115.8" fill="none" stroke="#A98B7E" stroke-width="2.7" stroke-linecap="round"/><path d="M444.6 129.4 Q457.3 113.5 476.8 108.0" fill="none" stroke="#8C6A5D" stroke-width="4.1" stroke-linecap="round"/><path d="M476.8 108.0 Q485.1 107.2 492.4 111.3" fill="none" stroke="#A98B7E" stroke-width="2.7" stroke-linecap="round"/><path d="M476.8 108.0 Q475.9 99.5 480.1 92.1" fill="none" stroke="#A98B7E" stroke-width="2.7" stroke-linecap="round"/><path d="M388.5 135.0 Q393.3 105.0 414.7 83.5" fill="none" stroke="#8C6A5D" stroke-width="6.3" stroke-linecap="round"/><path d="M414.7 83.5 Q429.1 65.5 451.3 59.3" fill="none" stroke="#8C6A5D" stroke-width="4.1" stroke-linecap="round"/><path d="M451.3 59.3 Q459.9 58.6 467.3 62.9" fill="none" stroke="#A98B7E" stroke-width="2.7" stroke-linecap="round"/><path d="M451.3 59.3 Q451.2 50.2 456.4 42.7" fill="none" stroke="#A98B7E" stroke-width="2.7" stroke-linecap="round"/><path d="M414.7 83.5 Q406.2 62.7 411.3 40.9" fill="none" stroke="#8C6A5D" stroke-width="4.1" stroke-linecap="round"/><path d="M411.3 40.9 Q414.6 32.7 422.0 28.0" fill="none" stroke="#A98B7E" stroke-width="2.7" stroke-linecap="round"/><path d="M411.3 40.9 Q403.5 37.6 399.1 30.3" fill="none" stroke="#A98B7E" stroke-width="2.7" stroke-linecap="round"/><path d="M320.0 168.1 Q331.7 141.1 357.0 126.0" fill="none" stroke="#8C6A5D" stroke-width="9.5" stroke-linecap="round"/><path d="M357.0 126.0 Q375.1 114.8 396.4 116.2" fill="none" stroke="#8C6A5D" stroke-width="6.3" stroke-linecap="round"/><path d="M396.4 116.2 Q411.5 109.7 427.5 113.1" fill="none" stroke="#8C6A5D" stroke-width="4.1" stroke-linecap="round"/><path d="M427.5 113.1 Q434.3 113.7 439.5 118.1" fill="none" stroke="#A98B7E" stroke-width="2.7" stroke-linecap="round"/><path d="M427.5 113.1 Q431.7 108.2 438.0 106.6" fill="none" stroke="#A98B7E" stroke-width="2.7" stroke-linecap="round"/><path d="M396.4 116.2 Q402.6 103.1 415.2 96.0" fill="none" stroke="#8C6A5D" stroke-width="4.1" stroke-linecap="round"/><path d="M415.2 96.0 Q420.3 92.4 426.5 92.4" fill="none" stroke="#A98B7E" stroke-width="2.7" stroke-linecap="round"/><path d="M415.2 96.0 Q414.1 90.1 416.6 84.7" fill="none" stroke="#A98B7E" stroke-width="2.7" stroke-linecap="round"/><path d="M357.0 126.0 Q350.5 106.5 356.6 86.8" fill="none" stroke="#8C6A5D" stroke-width="6.3" stroke-linecap="round"/><path d="M356.6 86.8 Q362.0 71.8 375.0 62.7" fill="none" stroke="#8C6A5D" stroke-width="4.1" stroke-linecap="round"/><path d="M375.0 62.7 Q379.4 58.0 385.8 56.7" fill="none" stroke="#A98B7E" stroke-width="2.7" stroke-linecap="round"/><path d="M375.0 62.7 Q373.5 56.2 376.0 50.0" fill="none" stroke="#A98B7E" stroke-width="2.7" stroke-linecap="round"/><path d="M356.6 86.8 Q345.2 78.0 341.1 64.3" fill="none" stroke="#8C6A5D" stroke-width="4.1" stroke-linecap="round"/><path d="M341.1 64.3 Q339.7 58.7 341.9 53.3" fill="none" stroke="#A98B7E" stroke-width="2.7" stroke-linecap="round"/><path d="M341.1 64.3 Q335.3 64.6 330.4 61.5" fill="none" stroke="#A98B7E" stroke-width="2.7" stroke-linecap="round"/><path d="M320.0 168.1 Q320.3 143.3 334.9 123.3" fill="none" stroke="#8C6A5D" stroke-width="9.5" stroke-linecap="round"/><path d="M334.9 123.3 Q347.7 111.3 365.1 109.0" fill="none" stroke="#8C6A5D" stroke-width="6.3" stroke-linecap="round"/><path d="M365.1 109.0 Q376.3 104.1 388.4 106.7" fill="none" stroke="#8C6A5D" stroke-width="4.1" stroke-linecap="round"/><path d="M388.4 106.7 Q393.5 106.8 397.5 109.9" fill="none" stroke="#A98B7E" stroke-width="2.7" stroke-linecap="round"/><path d="M388.4 106.7 Q391.6 102.8 396.6 101.5" fill="none" stroke="#A98B7E" stroke-width="2.7" stroke-linecap="round"/><path d="M365.1 109.0 Q366.9 96.2 375.7 86.9" fill="none" stroke="#8C6A5D" stroke-width="4.1" stroke-linecap="round"/><path d="M375.7 86.9 Q378.8 82.9 383.7 81.4" fill="none" stroke="#A98B7E" stroke-width="2.7" stroke-linecap="round"/><path d="M375.7 86.9 Q374.0 82.3 375.3 77.6" fill="none" stroke="#A98B7E" stroke-width="2.7" stroke-linecap="round"/><path d="M334.9 123.3 Q323.1 110.9 320.8 94.0" fill="none" stroke="#8C6A5D" stroke-width="6.3" stroke-linecap="round"/><path d="M320.8 94.0 Q320.1 81.0 327.0 70.1" fill="none" stroke="#8C6A5D" stroke-width="4.1" stroke-linecap="round"/><path d="M327.0 70.1 Q329.1 65.6 333.4 63.2" fill="none" stroke="#A98B7E" stroke-width="2.7" stroke-linecap="round"/><path d="M327.0 70.1 Q323.9 65.9 323.9 60.7" fill="none" stroke="#A98B7E" stroke-width="2.7" stroke-linecap="round"/><path d="M320.8 94.0 Q308.6 91.9 299.8 83.2" fill="none" stroke="#8C6A5D" stroke-width="4.1" stroke-linecap="round"/><path d="M299.8 83.2 Q296.7 79.7 296.2 75.0" fill="none" stroke="#A98B7E" stroke-width="2.7" stroke-linecap="round"/><path d="M299.8 83.2 Q295.2 85.6 290.0 84.9" fill="none" stroke="#A98B7E" stroke-width="2.7" stroke-linecap="round"/><path d="M320.0 168.1 Q312.8 145.4 320.0 122.8" fill="none" stroke="#8C6A5D" stroke-width="9.5" stroke-linecap="round"/><path d="M320.0 122.8 Q325.6 106.6 339.6 96.7" fill="none" stroke="#8C6A5D" stroke-width="6.3" stroke-linecap="round"/><path d="M339.6 96.7 Q349.9 90.4 361.9 91.3" fill="none" stroke="#8C6A5D" stroke-width="4.1" stroke-linecap="round"/><path d="M361.9 91.3 Q366.8 91.1 371.0 93.7" fill="none" stroke="#A98B7E" stroke-width="2.7" stroke-linecap="round"/><path d="M361.9 91.3 Q364.1 87.3 368.2 85.3" fill="none" stroke="#A98B7E" stroke-width="2.7" stroke-linecap="round"/><path d="M339.6 96.7 Q335.5 85.2 338.8 73.4" fill="none" stroke="#8C6A5D" stroke-width="4.1" stroke-linecap="round"/><path d="M338.8 73.4 Q340.2 68.7 344.1 65.7" fill="none" stroke="#A98B7E" stroke-width="2.7" stroke-linecap="round"/><path d="M338.8 73.4 Q334.7 70.2 333.3 65.2" fill="none" stroke="#A98B7E" stroke-width="2.7" stroke-linecap="round"/><path d="M320.0 122.8 Q305.4 115.8 297.5 101.6" fill="none" stroke="#8C6A5D" stroke-width="6.3" stroke-linecap="round"/><path d="M297.5 101.6 Q291.8 91.3 293.1 79.6" fill="none" stroke="#8C6A5D" stroke-width="4.1" stroke-linecap="round"/><path d="M293.1 79.6 Q294.4 74.9 298.3 71.9" fill="none" stroke="#A98B7E" stroke-width="2.7" stroke-linecap="round"/><path d="M293.1 79.6 Q288.5 77.9 285.8 73.8" fill="none" stroke="#A98B7E" stroke-width="2.7" stroke-linecap="round"/><path d="M297.5 101.6 Q285.4 103.1 274.6 97.4" fill="none" stroke="#8C6A5D" stroke-width="4.1" stroke-linecap="round"/><path d="M274.6 97.4 Q270.5 95.0 268.6 90.7" fill="none" stroke="#A98B7E" stroke-width="2.7" stroke-linecap="round"/><path d="M274.6 97.4 Q271.5 101.4 266.7 102.9" fill="none" stroke="#A98B7E" stroke-width="2.7" stroke-linecap="round"/><path d="M320.0 168.1 Q305.4 148.0 305.2 123.3" fill="none" stroke="#8C6A5D" stroke-width="9.5" stroke-linecap="round"/><path d="M305.2 123.3 Q301.5 104.9 309.1 87.8" fill="none" stroke="#8C6A5D" stroke-width="6.3" stroke-linecap="round"/><path d="M309.1 87.8 Q315.3 75.9 327.2 69.8" fill="none" stroke="#8C6A5D" stroke-width="4.1" stroke-linecap="round"/><path d="M327.2 69.8 Q331.7 67.3 336.7 67.9" fill="none" stroke="#A98B7E" stroke-width="2.7" stroke-linecap="round"/><path d="M327.2 69.8 Q326.4 64.2 328.8 59.2" fill="none" stroke="#A98B7E" stroke-width="2.7" stroke-linecap="round"/><path d="M309.1 87.8 Q298.0 78.7 294.2 64.8" fill="none" stroke="#8C6A5D" stroke-width="4.1" stroke-linecap="round"/><path d="M294.2 64.8 Q291.6 59.3 292.6 53.3" fill="none" stroke="#A98B7E" stroke-width="2.7" stroke-linecap="round"/><path d="M294.2 64.8 Q288.7 64.2 284.6 60.5" fill="none" stroke="#A98B7E" stroke-width="2.7" stroke-linecap="round"/><path d="M305.2 123.3 Q289.2 113.5 281.8 96.3" fill="none" stroke="#8C6A5D" stroke-width="6.3" stroke-linecap="round"/><path d="M281.8 96.3 Q277.4 83.4 281.2 70.3" fill="none" stroke="#8C6A5D" stroke-width="4.1" stroke-linecap="round"/><path d="M281.2 70.3 Q282.4 65.1 286.3 61.6" fill="none" stroke="#A98B7E" stroke-width="2.7" stroke-linecap="round"/><path d="M281.2 70.3 Q276.7 67.3 274.9 62.1" fill="none" stroke="#A98B7E" stroke-width="2.7" stroke-linecap="round"/><path d="M281.8 96.3 Q267.7 97.6 255.4 90.5" fill="none" stroke="#8C6A5D" stroke-width="4.1" stroke-linecap="round"/><path d="M255.4 90.5 Q250.2 88.5 247.1 83.8" fill="none" stroke="#A98B7E" stroke-width="2.7" stroke-linecap="round"/><path d="M255.4 90.5 Q250.5 93.1 245.0 92.4" fill="none" stroke="#A98B7E" stroke-width="2.7" stroke-linecap="round"/><path d="M320.0 168.1 Q294.8 152.9 283.1 126.0" fill="none" stroke="#8C6A5D" stroke-width="9.5" stroke-linecap="round"/><path d="M283.1 126.0 Q272.8 106.6 275.5 84.9" fill="none" stroke="#8C6A5D" stroke-width="6.3" stroke-linecap="round"/><path d="M275.5 84.9 Q274.6 69.4 282.9 56.3" fill="none" stroke="#8C6A5D" stroke-width="4.1" stroke-linecap="round"/><path d="M282.9 56.3 Q286.8 51.1 293.0 49.2" fill="none" stroke="#A98B7E" stroke-width="2.7" stroke-linecap="round"/><path d="M282.9 56.3 Q279.0 51.7 278.5 45.8" fill="none" stroke="#A98B7E" stroke-width="2.7" stroke-linecap="round"/><path d="M275.5 84.9 Q263.6 74.8 259.7 59.8" fill="none" stroke="#8C6A5D" stroke-width="4.1" stroke-linecap="round"/><path d="M259.7 59.8 Q257.5 53.6 259.3 47.2" fill="none" stroke="#A98B7E" stroke-width="2.7" stroke-linecap="round"/><path d="M259.7 59.8 Q253.5 59.3 248.6 55.3" fill="none" stroke="#A98B7E" stroke-width="2.7" stroke-linecap="round"/><path d="M283.1 126.0 Q261.0 124.4 243.8 110.2" fill="none" stroke="#8C6A5D" stroke-width="6.3" stroke-linecap="round"/><path d="M243.8 110.2 Q230.0 101.4 223.9 86.2" fill="none" stroke="#8C6A5D" stroke-width="4.1" stroke-linecap="round"/><path d="M223.9 86.2 Q220.8 80.3 221.7 73.7" fill="none" stroke="#A98B7E" stroke-width="2.7" stroke-linecap="round"/><path d="M223.9 86.2 Q216.9 86.4 211.2 82.5" fill="none" stroke="#A98B7E" stroke-width="2.7" stroke-linecap="round"/><path d="M243.8 110.2 Q227.2 113.8 211.7 107.0" fill="none" stroke="#8C6A5D" stroke-width="4.1" stroke-linecap="round"/><path d="M211.7 107.0 Q205.7 104.3 202.3 98.7" fill="none" stroke="#A98B7E" stroke-width="2.7" stroke-linecap="round"/><path d="M211.7 107.0 Q207.1 112.6 200.1 114.4" fill="none" stroke="#A98B7E" stroke-width="2.7" stroke-linecap="round"/><path d="M320.0 168.1 Q280.5 162.4 251.7 134.9" fill="none" stroke="#8C6A5D" stroke-width="9.5" stroke-linecap="round"/><path d="M251.7 134.9 Q229.4 117.9 221.1 91.1" fill="none" stroke="#8C6A5D" stroke-width="6.3" stroke-linecap="round"/><path d="M221.1 91.1 Q216.1 71.4 223.4 52.5" fill="none" stroke="#8C6A5D" stroke-width="4.1" stroke-linecap="round"/><path d="M223.4 52.5 Q226.3 44.5 233.3 39.6" fill="none" stroke="#A98B7E" stroke-width="2.7" stroke-linecap="round"/><path d="M223.4 52.5 Q217.3 47.9 215.0 40.6" fill="none" stroke="#A98B7E" stroke-width="2.7" stroke-linecap="round"/><path d="M221.1 91.1 Q200.5 91.8 183.3 80.4" fill="none" stroke="#8C6A5D" stroke-width="4.1" stroke-linecap="round"/><path d="M183.3 80.4 Q176.6 76.0 173.8 68.5" fill="none" stroke="#A98B7E" stroke-width="2.7" stroke-linecap="round"/><path d="M183.3 80.4 Q177.3 85.5 169.4 86.0" fill="none" stroke="#A98B7E" stroke-width="2.7" stroke-linecap="round"/><path d="M251.7 134.9 Q223.5 140.9 197.1 129.4" fill="none" stroke="#8C6A5D" stroke-width="6.3" stroke-linecap="round"/><path d="M197.1 129.4 Q178.6 117.5 170.6 97.1" fill="none" stroke="#8C6A5D" stroke-width="4.1" stroke-linecap="round"/><path d="M170.6 97.1 Q169.1 88.1 173.1 79.9" fill="none" stroke="#A98B7E" stroke-width="2.7" stroke-linecap="round"/><path d="M170.6 97.1 Q162.0 98.0 154.6 93.8" fill="none" stroke="#A98B7E" stroke-width="2.7" stroke-linecap="round"/><path d="M197.1 129.4 Q175.8 134.0 155.8 125.3" fill="none" stroke="#8C6A5D" stroke-width="4.1" stroke-linecap="round"/><path d="M155.8 125.3 Q147.6 122.6 142.5 115.7" fill="none" stroke="#A98B7E" stroke-width="2.7" stroke-linecap="round"/><path d="M155.8 125.3 Q149.3 130.9 140.7 131.6" fill="none" stroke="#A98B7E" stroke-width="2.7" stroke-linecap="round"/><ellipse cx="173.6" cy="118.6" rx="5.8" ry="10.1" fill="#FBE3EC" transform="rotate(44.59330863817557 173.6 128.7)"/><ellipse cx="173.6" cy="118.6" rx="5.8" ry="10.1" fill="#FBE3EC" transform="rotate(116.59330863817557 173.6 128.7)"/><ellipse cx="173.6" cy="118.6" rx="5.8" ry="10.1" fill="#FBE3EC" transform="rotate(188.59330863817559 173.6 128.7)"/><ellipse cx="173.6" cy="118.6" rx="5.8" ry="10.1" fill="#FBE3EC" transform="rotate(260.5933086381756 173.6 128.7)"/><ellipse cx="173.6" cy="118.6" rx="5.8" ry="10.1" fill="#FBE3EC" transform="rotate(332.5933086381756 173.6 128.7)"/><circle cx="173.6" cy="128.7" r="2.6" fill="#FFD84D"/><ellipse cx="158.2" cy="113.8" rx="5.5" ry="9.5" fill="#F2AECB" transform="rotate(2.513447088726797 158.2 123.3)"/><ellipse cx="158.2" cy="113.8" rx="5.5" ry="9.5" fill="#F2AECB" transform="rotate(74.51344708872679 158.2 123.3)"/><ellipse cx="158.2" cy="113.8" rx="5.5" ry="9.5" fill="#F2AECB" transform="rotate(146.5134470887268 158.2 123.3)"/><ellipse cx="158.2" cy="113.8" rx="5.5" ry="9.5" fill="#F2AECB" transform="rotate(218.5134470887268 158.2 123.3)"/><ellipse cx="158.2" cy="113.8" rx="5.5" ry="9.5" fill="#F2AECB" transform="rotate(290.5134470887268 158.2 123.3)"/><circle cx="158.2" cy="123.3" r="2.5" fill="#FFD84D"/><ellipse cx="483.8" cy="116.0" rx="4.5" ry="7.7" fill="#F2AECB" transform="rotate(65.41477321399901 483.8 123.7)"/><ellipse cx="483.8" cy="116.0" rx="4.5" ry="7.7" fill="#F2AECB" transform="rotate(137.414773213999 483.8 123.7)"/><ellipse cx="483.8" cy="116.0" rx="4.5" ry="7.7" fill="#F2AECB" transform="rotate(209.414773213999 483.8 123.7)"/><ellipse cx="483.8" cy="116.0" rx="4.5" ry="7.7" fill="#F2AECB" transform="rotate(281.414773213999 483.8 123.7)"/><ellipse cx="483.8" cy="116.0" rx="4.5" ry="7.7" fill="#F2AECB" transform="rotate(353.414773213999 483.8 123.7)"/><circle cx="483.8" cy="123.7" r="2.0" fill="#FFD84D"/><ellipse cx="470.0" cy="114.2" rx="6.1" ry="10.5" fill="#E896B8" transform="rotate(37.76393195736421 470.0 124.7)"/><ellipse cx="470.0" cy="114.2" rx="6.1" ry="10.5" fill="#E896B8" transform="rotate(109.7639319573642 470.0 124.7)"/><ellipse cx="470.0" cy="114.2" rx="6.1" ry="10.5" fill="#E896B8" transform="rotate(181.7639319573642 470.0 124.7)"/><ellipse cx="470.0" cy="114.2" rx="6.1" ry="10.5" fill="#E896B8" transform="rotate(253.7639319573642 470.0 124.7)"/><ellipse cx="470.0" cy="114.2" rx="6.1" ry="10.5" fill="#E896B8" transform="rotate(325.7639319573642 470.0 124.7)"/><circle cx="470.0" cy="124.7" r="2.7" fill="#FFD84D"/><ellipse cx="459.0" cy="102.5" rx="4.4" ry="7.6" fill="#F2AECB" transform="rotate(70.11696080989636 459.0 110.1)"/><ellipse cx="459.0" cy="102.5" rx="4.4" ry="7.6" fill="#F2AECB" transform="rotate(142.11696080989634 459.0 110.1)"/><ellipse cx="459.0" cy="102.5" rx="4.4" ry="7.6" fill="#F2AECB" transform="rotate(214.11696080989634 459.0 110.1)"/><ellipse cx="459.0" cy="102.5" rx="4.4" ry="7.6" fill="#F2AECB" transform="rotate(286.11696080989634 459.0 110.1)"/><ellipse cx="459.0" cy="102.5" rx="4.4" ry="7.6" fill="#F2AECB" transform="rotate(358.11696080989634 459.0 110.1)"/><circle cx="459.0" cy="110.1" r="1.9" fill="#FFD84D"/><ellipse cx="419.7" cy="106.1" rx="5.9" ry="10.2" fill="#F2AECB" transform="rotate(13.592837374995035 419.7 116.3)"/><ellipse cx="419.7" cy="106.1" rx="5.9" ry="10.2" fill="#F2AECB" transform="rotate(85.59283737499504 419.7 116.3)"/><ellipse cx="419.7" cy="106.1" rx="5.9" ry="10.2" fill="#F2AECB" transform="rotate(157.59283737499504 419.7 116.3)"/><ellipse cx="419.7" cy="106.1" rx="5.9" ry="10.2" fill="#F2AECB" transform="rotate(229.59283737499504 419.7 116.3)"/><ellipse cx="419.7" cy="106.1" rx="5.9" ry="10.2" fill="#F2AECB" transform="rotate(301.59283737499504 419.7 116.3)"/><circle cx="419.7" cy="116.3" r="2.6" fill="#FFD84D"/><ellipse cx="421.8" cy="102.8" rx="5.2" ry="9.0" fill="#E896B8" transform="rotate(15.034561763329137 421.8 111.8)"/><ellipse cx="421.8" cy="102.8" rx="5.2" ry="9.0" fill="#E896B8" transform="rotate(87.03456176332914 421.8 111.8)"/><ellipse cx="421.8" cy="102.8" rx="5.2" ry="9.0" fill="#E896B8" transform="rotate(159.03456176332912 421.8 111.8)"/><ellipse cx="421.8" cy="102.8" rx="5.2" ry="9.0" fill="#E896B8" transform="rotate(231.03456176332912 421.8 111.8)"/><ellipse cx="421.8" cy="102.8" rx="5.2" ry="9.0" fill="#E896B8" transform="rotate(303.0345617633291 421.8 111.8)"/><circle cx="421.8" cy="111.8" r="2.3" fill="#FFD84D"/><ellipse cx="172.1" cy="95.1" rx="6.0" ry="10.3" fill="#FBE3EC" transform="rotate(43.09660927118723 172.1 105.4)"/><ellipse cx="172.1" cy="95.1" rx="6.0" ry="10.3" fill="#FBE3EC" transform="rotate(115.09660927118723 172.1 105.4)"/><ellipse cx="172.1" cy="95.1" rx="6.0" ry="10.3" fill="#FBE3EC" transform="rotate(187.09660927118722 172.1 105.4)"/><ellipse cx="172.1" cy="95.1" rx="6.0" ry="10.3" fill="#FBE3EC" transform="rotate(259.0966092711872 172.1 105.4)"/><ellipse cx="172.1" cy="95.1" rx="6.0" ry="10.3" fill="#FBE3EC" transform="rotate(331.0966092711872 172.1 105.4)"/><circle cx="172.1" cy="105.4" r="2.7" fill="#FFD84D"/><ellipse cx="223.5" cy="96.0" rx="5.1" ry="8.8" fill="#F2AECB" transform="rotate(58.160075198117596 223.5 104.8)"/><ellipse cx="223.5" cy="96.0" rx="5.1" ry="8.8" fill="#F2AECB" transform="rotate(130.1600751981176 223.5 104.8)"/><ellipse cx="223.5" cy="96.0" rx="5.1" ry="8.8" fill="#F2AECB" transform="rotate(202.1600751981176 223.5 104.8)"/><ellipse cx="223.5" cy="96.0" rx="5.1" ry="8.8" fill="#F2AECB" transform="rotate(274.1600751981176 223.5 104.8)"/><ellipse cx="223.5" cy="96.0" rx="5.1" ry="8.8" fill="#F2AECB" transform="rotate(346.1600751981176 223.5 104.8)"/><circle cx="223.5" cy="104.8" r="2.3" fill="#FFD84D"/><ellipse cx="476.0" cy="99.0" rx="5.5" ry="9.4" fill="#E896B8" transform="rotate(19.334694680216312 476.0 108.4)"/><ellipse cx="476.0" cy="99.0" rx="5.5" ry="9.4" fill="#E896B8" transform="rotate(91.33469468021632 476.0 108.4)"/><ellipse cx="476.0" cy="99.0" rx="5.5" ry="9.4" fill="#E896B8" transform="rotate(163.3346946802163 476.0 108.4)"/><ellipse cx="476.0" cy="99.0" rx="5.5" ry="9.4" fill="#E896B8" transform="rotate(235.3346946802163 476.0 108.4)"/><ellipse cx="476.0" cy="99.0" rx="5.5" ry="9.4" fill="#E896B8" transform="rotate(307.33469468021633 476.0 108.4)"/><circle cx="476.0" cy="108.4" r="2.4" fill="#FFD84D"/><ellipse cx="222.0" cy="95.2" rx="4.6" ry="8.0" fill="#F2AECB" transform="rotate(7.454582591607892 222.0 103.3)"/><ellipse cx="222.0" cy="95.2" rx="4.6" ry="8.0" fill="#F2AECB" transform="rotate(79.45458259160789 222.0 103.3)"/><ellipse cx="222.0" cy="95.2" rx="4.6" ry="8.0" fill="#F2AECB" transform="rotate(151.4545825916079 222.0 103.3)"/><ellipse cx="222.0" cy="95.2" rx="4.6" ry="8.0" fill="#F2AECB" transform="rotate(223.4545825916079 222.0 103.3)"/><ellipse cx="222.0" cy="95.2" rx="4.6" ry="8.0" fill="#F2AECB" transform="rotate(295.4545825916079 222.0 103.3)"/><circle cx="222.0" cy="103.3" r="2.1" fill="#FFD84D"/><ellipse cx="383.0" cy="97.4" rx="5.3" ry="9.2" fill="#F2AECB" transform="rotate(10.714763405283682 383.0 106.6)"/><ellipse cx="383.0" cy="97.4" rx="5.3" ry="9.2" fill="#F2AECB" transform="rotate(82.71476340528368 383.0 106.6)"/><ellipse cx="383.0" cy="97.4" rx="5.3" ry="9.2" fill="#F2AECB" transform="rotate(154.7147634052837 383.0 106.6)"/><ellipse cx="383.0" cy="97.4" rx="5.3" ry="9.2" fill="#F2AECB" transform="rotate(226.7147634052837 383.0 106.6)"/><ellipse cx="383.0" cy="97.4" rx="5.3" ry="9.2" fill="#F2AECB" transform="rotate(298.7147634052837 383.0 106.6)"/><circle cx="383.0" cy="106.6" r="2.4" fill="#FFD84D"/><ellipse cx="385.1" cy="90.5" rx="5.8" ry="10.0" fill="#E896B8" transform="rotate(17.040105611680307 385.1 100.5)"/><ellipse cx="385.1" cy="90.5" rx="5.8" ry="10.0" fill="#E896B8" transform="rotate(89.0401056116803 385.1 100.5)"/><ellipse cx="385.1" cy="90.5" rx="5.8" ry="10.0" fill="#E896B8" transform="rotate(161.0401056116803 385.1 100.5)"/><ellipse cx="385.1" cy="90.5" rx="5.8" ry="10.0" fill="#E896B8" transform="rotate(233.0401056116803 385.1 100.5)"/><ellipse cx="385.1" cy="90.5" rx="5.8" ry="10.0" fill="#E896B8" transform="rotate(305.0401056116803 385.1 100.5)"/><circle cx="385.1" cy="100.5" r="2.6" fill="#FFD84D"/><ellipse cx="173.8" cy="100.8" rx="5.0" ry="8.5" fill="#F2AECB" transform="rotate(44.16211477306955 173.8 109.3)"/><ellipse cx="173.8" cy="100.8" rx="5.0" ry="8.5" fill="#F2AECB" transform="rotate(116.16211477306955 173.8 109.3)"/><ellipse cx="173.8" cy="100.8" rx="5.0" ry="8.5" fill="#F2AECB" transform="rotate(188.16211477306956 173.8 109.3)"/><ellipse cx="173.8" cy="100.8" rx="5.0" ry="8.5" fill="#F2AECB" transform="rotate(260.16211477306956 173.8 109.3)"/><ellipse cx="173.8" cy="100.8" rx="5.0" ry="8.5" fill="#F2AECB" transform="rotate(332.16211477306956 173.8 109.3)"/><circle cx="173.8" cy="109.3" r="2.2" fill="#FFD84D"/><ellipse cx="408.4" cy="85.9" rx="5.9" ry="10.2" fill="#FBE3EC" transform="rotate(66.9467475205316 408.4 96.1)"/><ellipse cx="408.4" cy="85.9" rx="5.9" ry="10.2" fill="#FBE3EC" transform="rotate(138.9467475205316 408.4 96.1)"/><ellipse cx="408.4" cy="85.9" rx="5.9" ry="10.2" fill="#FBE3EC" transform="rotate(210.9467475205316 408.4 96.1)"/><ellipse cx="408.4" cy="85.9" rx="5.9" ry="10.2" fill="#FBE3EC" transform="rotate(282.94674752053163 408.4 96.1)"/><ellipse cx="408.4" cy="85.9" rx="5.9" ry="10.2" fill="#FBE3EC" transform="rotate(354.94674752053163 408.4 96.1)"/><circle cx="408.4" cy="96.1" r="2.6" fill="#FFD84D"/><ellipse cx="277.3" cy="89.2" rx="5.2" ry="8.9" fill="#E896B8" transform="rotate(61.07693963417455 277.3 98.1)"/><ellipse cx="277.3" cy="89.2" rx="5.2" ry="8.9" fill="#E896B8" transform="rotate(133.07693963417455 277.3 98.1)"/><ellipse cx="277.3" cy="89.2" rx="5.2" ry="8.9" fill="#E896B8" transform="rotate(205.07693963417455 277.3 98.1)"/><ellipse cx="277.3" cy="89.2" rx="5.2" ry="8.9" fill="#E896B8" transform="rotate(277.07693963417455 277.3 98.1)"/><ellipse cx="277.3" cy="89.2" rx="5.2" ry="8.9" fill="#E896B8" transform="rotate(349.07693963417455 277.3 98.1)"/><circle cx="277.3" cy="98.1" r="2.3" fill="#FFD84D"/><ellipse cx="279.2" cy="83.5" rx="5.5" ry="9.5" fill="#F2AECB" transform="rotate(1.9036126625575234 279.2 93.0)"/><ellipse cx="279.2" cy="83.5" rx="5.5" ry="9.5" fill="#F2AECB" transform="rotate(73.90361266255752 279.2 93.0)"/><ellipse cx="279.2" cy="83.5" rx="5.5" ry="9.5" fill="#F2AECB" transform="rotate(145.90361266255752 279.2 93.0)"/><ellipse cx="279.2" cy="83.5" rx="5.5" ry="9.5" fill="#F2AECB" transform="rotate(217.90361266255752 279.2 93.0)"/><ellipse cx="279.2" cy="83.5" rx="5.5" ry="9.5" fill="#F2AECB" transform="rotate(289.9036126625575 279.2 93.0)"/><circle cx="279.2" cy="93.0" r="2.4" fill="#FFD84D"/><ellipse cx="406.8" cy="87.5" rx="6.1" ry="10.5" fill="#F2AECB" transform="rotate(50.95293983460858 406.8 98.0)"/><ellipse cx="406.8" cy="87.5" rx="6.1" ry="10.5" fill="#F2AECB" transform="rotate(122.95293983460857 406.8 98.0)"/><ellipse cx="406.8" cy="87.5" rx="6.1" ry="10.5" fill="#F2AECB" transform="rotate(194.95293983460857 406.8 98.0)"/><ellipse cx="406.8" cy="87.5" rx="6.1" ry="10.5" fill="#F2AECB" transform="rotate(266.95293983460857 406.8 98.0)"/><ellipse cx="406.8" cy="87.5" rx="6.1" ry="10.5" fill="#F2AECB" transform="rotate(338.95293983460857 406.8 98.0)"/><circle cx="406.8" cy="98.0" r="2.7" fill="#FFD84D"/><ellipse cx="234.9" cy="88.7" rx="5.5" ry="9.4" fill="#E896B8" transform="rotate(45.86912120416533 234.9 98.1)"/><ellipse cx="234.9" cy="88.7" rx="5.5" ry="9.4" fill="#E896B8" transform="rotate(117.86912120416534 234.9 98.1)"/><ellipse cx="234.9" cy="88.7" rx="5.5" ry="9.4" fill="#E896B8" transform="rotate(189.86912120416534 234.9 98.1)"/><ellipse cx="234.9" cy="88.7" rx="5.5" ry="9.4" fill="#E896B8" transform="rotate(261.8691212041653 234.9 98.1)"/><ellipse cx="234.9" cy="88.7" rx="5.5" ry="9.4" fill="#E896B8" transform="rotate(333.8691212041653 234.9 98.1)"/><circle cx="234.9" cy="98.1" r="2.4" fill="#FFD84D"/><ellipse cx="269.6" cy="86.1" rx="5.7" ry="9.8" fill="#F2AECB" transform="rotate(21.38670981106985 269.6 95.8)"/><ellipse cx="269.6" cy="86.1" rx="5.7" ry="9.8" fill="#F2AECB" transform="rotate(93.38670981106985 269.6 95.8)"/><ellipse cx="269.6" cy="86.1" rx="5.7" ry="9.8" fill="#F2AECB" transform="rotate(165.38670981106986 269.6 95.8)"/><ellipse cx="269.6" cy="86.1" rx="5.7" ry="9.8" fill="#F2AECB" transform="rotate(237.38670981106986 269.6 95.8)"/><ellipse cx="269.6" cy="86.1" rx="5.7" ry="9.8" fill="#F2AECB" transform="rotate(309.38670981106986 269.6 95.8)"/><circle cx="269.6" cy="95.8" r="2.5" fill="#FFD84D"/><ellipse cx="366.6" cy="86.8" rx="4.8" ry="8.3" fill="#F2AECB" transform="rotate(30.99725558537004 366.6 95.2)"/><ellipse cx="366.6" cy="86.8" rx="4.8" ry="8.3" fill="#F2AECB" transform="rotate(102.99725558537004 366.6 95.2)"/><ellipse cx="366.6" cy="86.8" rx="4.8" ry="8.3" fill="#F2AECB" transform="rotate(174.99725558537006 366.6 95.2)"/><ellipse cx="366.6" cy="86.8" rx="4.8" ry="8.3" fill="#F2AECB" transform="rotate(246.99725558537006 366.6 95.2)"/><ellipse cx="366.6" cy="86.8" rx="4.8" ry="8.3" fill="#F2AECB" transform="rotate(318.99725558537006 366.6 95.2)"/><circle cx="366.6" cy="95.2" r="2.2" fill="#FFD84D"/><ellipse cx="261.0" cy="79.7" rx="5.1" ry="8.7" fill="#FBE3EC" transform="rotate(25.411389857015514 261.0 88.4)"/><ellipse cx="261.0" cy="79.7" rx="5.1" ry="8.7" fill="#FBE3EC" transform="rotate(97.41138985701551 261.0 88.4)"/><ellipse cx="261.0" cy="79.7" rx="5.1" ry="8.7" fill="#FBE3EC" transform="rotate(169.4113898570155 261.0 88.4)"/><ellipse cx="261.0" cy="79.7" rx="5.1" ry="8.7" fill="#FBE3EC" transform="rotate(241.4113898570155 261.0 88.4)"/><ellipse cx="261.0" cy="79.7" rx="5.1" ry="8.7" fill="#FBE3EC" transform="rotate(313.41138985701554 261.0 88.4)"/><circle cx="261.0" cy="88.4" r="2.3" fill="#FFD84D"/><ellipse cx="353.5" cy="79.9" rx="5.3" ry="9.1" fill="#F2AECB" transform="rotate(27.093774034674414 353.5 88.9)"/><ellipse cx="353.5" cy="79.9" rx="5.3" ry="9.1" fill="#F2AECB" transform="rotate(99.09377403467441 353.5 88.9)"/><ellipse cx="353.5" cy="79.9" rx="5.3" ry="9.1" fill="#F2AECB" transform="rotate(171.09377403467442 353.5 88.9)"/><ellipse cx="353.5" cy="79.9" rx="5.3" ry="9.1" fill="#F2AECB" transform="rotate(243.09377403467442 353.5 88.9)"/><ellipse cx="353.5" cy="79.9" rx="5.3" ry="9.1" fill="#F2AECB" transform="rotate(315.0937740346744 353.5 88.9)"/><circle cx="353.5" cy="88.9" r="2.3" fill="#FFD84D"/><ellipse cx="364.2" cy="85.7" rx="5.1" ry="8.8" fill="#F2AECB" transform="rotate(42.58460795206684 364.2 94.5)"/><ellipse cx="364.2" cy="85.7" rx="5.1" ry="8.8" fill="#F2AECB" transform="rotate(114.58460795206685 364.2 94.5)"/><ellipse cx="364.2" cy="85.7" rx="5.1" ry="8.8" fill="#F2AECB" transform="rotate(186.58460795206685 364.2 94.5)"/><ellipse cx="364.2" cy="85.7" rx="5.1" ry="8.8" fill="#F2AECB" transform="rotate(258.58460795206685 364.2 94.5)"/><ellipse cx="364.2" cy="85.7" rx="5.1" ry="8.8" fill="#F2AECB" transform="rotate(330.58460795206685 364.2 94.5)"/><circle cx="364.2" cy="94.5" r="2.3" fill="#FFD84D"/><ellipse cx="226.0" cy="86.4" rx="4.9" ry="8.5" fill="#E896B8" transform="rotate(60.20223010264069 226.0 94.8)"/><ellipse cx="226.0" cy="86.4" rx="4.9" ry="8.5" fill="#E896B8" transform="rotate(132.2022301026407 226.0 94.8)"/><ellipse cx="226.0" cy="86.4" rx="4.9" ry="8.5" fill="#E896B8" transform="rotate(204.2022301026407 226.0 94.8)"/><ellipse cx="226.0" cy="86.4" rx="4.9" ry="8.5" fill="#E896B8" transform="rotate(276.20223010264067 226.0 94.8)"/><ellipse cx="226.0" cy="86.4" rx="4.9" ry="8.5" fill="#E896B8" transform="rotate(348.20223010264067 226.0 94.8)"/><circle cx="226.0" cy="94.8" r="2.2" fill="#FFD84D"/><ellipse cx="368.1" cy="87.2" rx="4.5" ry="7.7" fill="#F2AECB" transform="rotate(28.451979257744007 368.1 95.0)"/><ellipse cx="368.1" cy="87.2" rx="4.5" ry="7.7" fill="#F2AECB" transform="rotate(100.451979257744 368.1 95.0)"/><ellipse cx="368.1" cy="87.2" rx="4.5" ry="7.7" fill="#F2AECB" transform="rotate(172.451979257744 368.1 95.0)"/><ellipse cx="368.1" cy="87.2" rx="4.5" ry="7.7" fill="#F2AECB" transform="rotate(244.451979257744 368.1 95.0)"/><ellipse cx="368.1" cy="87.2" rx="4.5" ry="7.7" fill="#F2AECB" transform="rotate(316.45197925774403 368.1 95.0)"/><circle cx="368.1" cy="95.0" r="2.0" fill="#FFD84D"/><ellipse cx="306.3" cy="75.8" rx="4.6" ry="7.9" fill="#F2AECB" transform="rotate(50.19736590369959 306.3 83.7)"/><ellipse cx="306.3" cy="75.8" rx="4.6" ry="7.9" fill="#F2AECB" transform="rotate(122.19736590369959 306.3 83.7)"/><ellipse cx="306.3" cy="75.8" rx="4.6" ry="7.9" fill="#F2AECB" transform="rotate(194.1973659036996 306.3 83.7)"/><ellipse cx="306.3" cy="75.8" rx="4.6" ry="7.9" fill="#F2AECB" transform="rotate(266.1973659036996 306.3 83.7)"/><ellipse cx="306.3" cy="75.8" rx="4.6" ry="7.9" fill="#F2AECB" transform="rotate(338.1973659036996 306.3 83.7)"/><circle cx="306.3" cy="83.7" r="2.1" fill="#FFD84D"/><ellipse cx="289.9" cy="84.0" rx="4.4" ry="7.6" fill="#E896B8" transform="rotate(55.006414345911935 289.9 91.6)"/><ellipse cx="289.9" cy="84.0" rx="4.4" ry="7.6" fill="#E896B8" transform="rotate(127.00641434591194 289.9 91.6)"/><ellipse cx="289.9" cy="84.0" rx="4.4" ry="7.6" fill="#E896B8" transform="rotate(199.00641434591194 289.9 91.6)"/><ellipse cx="289.9" cy="84.0" rx="4.4" ry="7.6" fill="#E896B8" transform="rotate(271.00641434591194 289.9 91.6)"/><ellipse cx="289.9" cy="84.0" rx="4.4" ry="7.6" fill="#E896B8" transform="rotate(343.00641434591194 289.9 91.6)"/><circle cx="289.9" cy="91.6" r="2.0" fill="#FFD84D"/><ellipse cx="195.1" cy="72.5" rx="6.1" ry="10.4" fill="#FBE3EC" transform="rotate(4.071138070547023 195.1 83.0)"/><ellipse cx="195.1" cy="72.5" rx="6.1" ry="10.4" fill="#FBE3EC" transform="rotate(76.07113807054702 195.1 83.0)"/><ellipse cx="195.1" cy="72.5" rx="6.1" ry="10.4" fill="#FBE3EC" transform="rotate(148.07113807054702 195.1 83.0)"/><ellipse cx="195.1" cy="72.5" rx="6.1" ry="10.4" fill="#FBE3EC" transform="rotate(220.07113807054702 195.1 83.0)"/><ellipse cx="195.1" cy="72.5" rx="6.1" ry="10.4" fill="#FBE3EC" transform="rotate(292.071138070547 195.1 83.0)"/><circle cx="195.1" cy="83.0" r="2.7" fill="#FFD84D"/><ellipse cx="301.8" cy="77.6" rx="5.8" ry="10.0" fill="#F2AECB" transform="rotate(54.19678405529547 301.8 87.6)"/><ellipse cx="301.8" cy="77.6" rx="5.8" ry="10.0" fill="#F2AECB" transform="rotate(126.19678405529547 301.8 87.6)"/><ellipse cx="301.8" cy="77.6" rx="5.8" ry="10.0" fill="#F2AECB" transform="rotate(198.19678405529547 301.8 87.6)"/><ellipse cx="301.8" cy="77.6" rx="5.8" ry="10.0" fill="#F2AECB" transform="rotate(270.19678405529544 301.8 87.6)"/><ellipse cx="301.8" cy="77.6" rx="5.8" ry="10.0" fill="#F2AECB" transform="rotate(342.19678405529544 301.8 87.6)"/><circle cx="301.8" cy="87.6" r="2.6" fill="#FFD84D"/><ellipse cx="194.4" cy="77.3" rx="5.3" ry="9.2" fill="#E896B8" transform="rotate(46.31552655127358 194.4 86.5)"/><ellipse cx="194.4" cy="77.3" rx="5.3" ry="9.2" fill="#E896B8" transform="rotate(118.31552655127358 194.4 86.5)"/><ellipse cx="194.4" cy="77.3" rx="5.3" ry="9.2" fill="#E896B8" transform="rotate(190.3155265512736 194.4 86.5)"/><ellipse cx="194.4" cy="77.3" rx="5.3" ry="9.2" fill="#E896B8" transform="rotate(262.3155265512736 194.4 86.5)"/><ellipse cx="194.4" cy="77.3" rx="5.3" ry="9.2" fill="#E896B8" transform="rotate(334.3155265512736 194.4 86.5)"/><circle cx="194.4" cy="86.5" r="2.4" fill="#FFD84D"/><ellipse cx="293.0" cy="73.1" rx="4.7" ry="8.2" fill="#F2AECB" transform="rotate(52.95037716661998 293.0 81.3)"/><ellipse cx="293.0" cy="73.1" rx="4.7" ry="8.2" fill="#F2AECB" transform="rotate(124.95037716661997 293.0 81.3)"/><ellipse cx="293.0" cy="73.1" rx="4.7" ry="8.2" fill="#F2AECB" transform="rotate(196.95037716661997 293.0 81.3)"/><ellipse cx="293.0" cy="73.1" rx="4.7" ry="8.2" fill="#F2AECB" transform="rotate(268.95037716662 293.0 81.3)"/><ellipse cx="293.0" cy="73.1" rx="4.7" ry="8.2" fill="#F2AECB" transform="rotate(340.95037716662 293.0 81.3)"/><circle cx="293.0" cy="81.3" r="2.1" fill="#FFD84D"/><ellipse cx="339.9" cy="81.0" rx="4.5" ry="7.7" fill="#F2AECB" transform="rotate(68.46175182844478 339.9 88.6)"/><ellipse cx="339.9" cy="81.0" rx="4.5" ry="7.7" fill="#F2AECB" transform="rotate(140.4617518284448 339.9 88.6)"/><ellipse cx="339.9" cy="81.0" rx="4.5" ry="7.7" fill="#F2AECB" transform="rotate(212.4617518284448 339.9 88.6)"/><ellipse cx="339.9" cy="81.0" rx="4.5" ry="7.7" fill="#F2AECB" transform="rotate(284.4617518284448 339.9 88.6)"/><ellipse cx="339.9" cy="81.0" rx="4.5" ry="7.7" fill="#F2AECB" transform="rotate(356.4617518284448 339.9 88.6)"/><circle cx="339.9" cy="88.6" r="2.0" fill="#FFD84D"/><ellipse cx="280.2" cy="70.9" rx="4.3" ry="7.5" fill="#E896B8" transform="rotate(49.122622418608955 280.2 78.4)"/><ellipse cx="280.2" cy="70.9" rx="4.3" ry="7.5" fill="#E896B8" transform="rotate(121.12262241860896 280.2 78.4)"/><ellipse cx="280.2" cy="70.9" rx="4.3" ry="7.5" fill="#E896B8" transform="rotate(193.12262241860896 280.2 78.4)"/><ellipse cx="280.2" cy="70.9" rx="4.3" ry="7.5" fill="#E896B8" transform="rotate(265.12262241860896 280.2 78.4)"/><ellipse cx="280.2" cy="70.9" rx="4.3" ry="7.5" fill="#E896B8" transform="rotate(337.12262241860896 280.2 78.4)"/><circle cx="280.2" cy="78.4" r="1.9" fill="#FFD84D"/><ellipse cx="316.3" cy="66.9" rx="4.5" ry="7.7" fill="#F2AECB" transform="rotate(43.188343630914545 316.3 74.5)"/><ellipse cx="316.3" cy="66.9" rx="4.5" ry="7.7" fill="#F2AECB" transform="rotate(115.18834363091455 316.3 74.5)"/><ellipse cx="316.3" cy="66.9" rx="4.5" ry="7.7" fill="#F2AECB" transform="rotate(187.18834363091455 316.3 74.5)"/><ellipse cx="316.3" cy="66.9" rx="4.5" ry="7.7" fill="#F2AECB" transform="rotate(259.1883436309146 316.3 74.5)"/><ellipse cx="316.3" cy="66.9" rx="4.5" ry="7.7" fill="#F2AECB" transform="rotate(331.1883436309146 316.3 74.5)"/><circle cx="316.3" cy="74.5" r="2.0" fill="#FFD84D"/><ellipse cx="343.1" cy="72.4" rx="5.6" ry="9.6" fill="#FBE3EC" transform="rotate(19.990584795558682 343.1 82.1)"/><ellipse cx="343.1" cy="72.4" rx="5.6" ry="9.6" fill="#FBE3EC" transform="rotate(91.99058479555868 343.1 82.1)"/><ellipse cx="343.1" cy="72.4" rx="5.6" ry="9.6" fill="#FBE3EC" transform="rotate(163.99058479555868 343.1 82.1)"/><ellipse cx="343.1" cy="72.4" rx="5.6" ry="9.6" fill="#FBE3EC" transform="rotate(235.99058479555868 343.1 82.1)"/><ellipse cx="343.1" cy="72.4" rx="5.6" ry="9.6" fill="#FBE3EC" transform="rotate(307.9905847955587 343.1 82.1)"/><circle cx="343.1" cy="82.1" r="2.5" fill="#FFD84D"/><ellipse cx="316.7" cy="68.7" rx="5.1" ry="8.9" fill="#E896B8" transform="rotate(32.05912029340921 316.7 77.6)"/><ellipse cx="316.7" cy="68.7" rx="5.1" ry="8.9" fill="#E896B8" transform="rotate(104.05912029340921 316.7 77.6)"/><ellipse cx="316.7" cy="68.7" rx="5.1" ry="8.9" fill="#E896B8" transform="rotate(176.0591202934092 316.7 77.6)"/><ellipse cx="316.7" cy="68.7" rx="5.1" ry="8.9" fill="#E896B8" transform="rotate(248.0591202934092 316.7 77.6)"/><ellipse cx="316.7" cy="68.7" rx="5.1" ry="8.9" fill="#E896B8" transform="rotate(320.0591202934092 316.7 77.6)"/><circle cx="316.7" cy="77.6" r="2.3" fill="#FFD84D"/><ellipse cx="300.3" cy="71.5" rx="5.0" ry="8.6" fill="#F2AECB" transform="rotate(43.72354323553831 300.3 80.1)"/><ellipse cx="300.3" cy="71.5" rx="5.0" ry="8.6" fill="#F2AECB" transform="rotate(115.7235432355383 300.3 80.1)"/><ellipse cx="300.3" cy="71.5" rx="5.0" ry="8.6" fill="#F2AECB" transform="rotate(187.7235432355383 300.3 80.1)"/><ellipse cx="300.3" cy="71.5" rx="5.0" ry="8.6" fill="#F2AECB" transform="rotate(259.72354323553833 300.3 80.1)"/><ellipse cx="300.3" cy="71.5" rx="5.0" ry="8.6" fill="#F2AECB" transform="rotate(331.72354323553833 300.3 80.1)"/><circle cx="300.3" cy="80.1" r="2.2" fill="#FFD84D"/><ellipse cx="286.2" cy="61.1" rx="5.1" ry="8.8" fill="#F2AECB" transform="rotate(20.20316309098473 286.2 69.9)"/><ellipse cx="286.2" cy="61.1" rx="5.1" ry="8.8" fill="#F2AECB" transform="rotate(92.20316309098473 286.2 69.9)"/><ellipse cx="286.2" cy="61.1" rx="5.1" ry="8.8" fill="#F2AECB" transform="rotate(164.20316309098473 286.2 69.9)"/><ellipse cx="286.2" cy="61.1" rx="5.1" ry="8.8" fill="#F2AECB" transform="rotate(236.20316309098473 286.2 69.9)"/><ellipse cx="286.2" cy="61.1" rx="5.1" ry="8.8" fill="#F2AECB" transform="rotate(308.20316309098473 286.2 69.9)"/><circle cx="286.2" cy="69.9" r="2.3" fill="#FFD84D"/><ellipse cx="341.9" cy="60.4" rx="5.0" ry="8.5" fill="#E896B8" transform="rotate(38.81621256357466 341.9 69.0)"/><ellipse cx="341.9" cy="60.4" rx="5.0" ry="8.5" fill="#E896B8" transform="rotate(110.81621256357465 341.9 69.0)"/><ellipse cx="341.9" cy="60.4" rx="5.0" ry="8.5" fill="#E896B8" transform="rotate(182.81621256357465 341.9 69.0)"/><ellipse cx="341.9" cy="60.4" rx="5.0" ry="8.5" fill="#E896B8" transform="rotate(254.81621256357465 341.9 69.0)"/><ellipse cx="341.9" cy="60.4" rx="5.0" ry="8.5" fill="#E896B8" transform="rotate(326.81621256357465 341.9 69.0)"/><circle cx="341.9" cy="69.0" r="2.2" fill="#FFD84D"/></svg>