<svg width="1280" height="480" viewBox="0 0 640 240" xmlns="http://www.w3.org/2000/svg"><ellipse cx="320" cy="233" rx="212" ry="8" fill="#F7D4E1"/><path d="M320.0 228.0 Q317.1 195.0 320.0 168.1" fill="none" stroke="#8C6A5D" stroke-width="16.1" stroke-linecap="round"/><path d="M320.0 168.1 Q348.9 140.6 388.5 135.0" fill="none" stroke="#8C6A5D" stroke-width="9.5" stroke-linecap="round"/><path d="M388.5 135.0 Q415.6 123.2 444.6 129.4" fill="none" stroke="#8C6A5D" stroke-width="6.3" stroke-linecap="round"/><path d="M444.6 129.4 Q464.1 120.9 484.9 125.3" fill="none" stroke="#8C6A5D" stroke-width="4.1" stroke-linecap="round"/><path d="M484.9 125.3 Q493.0 126.5 498.9 132.1" fill="none" stroke="#A98B7E" stroke-width="2.7" stroke-linecap="round"/><path d="M484.9 125.3 Q490.2 118.4 498.5 115.8" fill="none" stroke="#A98B7E" stroke-width="2.7" stroke-linecap="round"/><path d="M444.6 129.4 Q457.3 113.5 476.8 108.0" fill="none" stroke="#8C6A5D" stroke-width="4.1" stroke-linecap="round"/><path d="M476.8 108.0 Q485.1 107.2 492.4 111.3" fill="none" stroke="#A98B7E" stroke-width="2.7" stroke-linecap="round"/><path d="M476.8 108.0 Q475.9 99.5 480.1 92.1" fill="none" stroke="#A98B7E" stroke-width="2.7" stroke-linecap="round"/><path d="M388.5 135.0 Q393.3 105.0 414.7 83.5" fill="none" stroke="#8C6A5D" stroke-width="6.3" stroke-linecap="round"/><path d="M414.7 83.5 Q429.1 65.5 451.3 59.3" fill="none" stroke="#8C6A5D" stroke-width="4.1" stroke-linecap="round"/><path d="M451.3 59.3 Q459.9 58.6 467.3 62.9" fill="none" stroke="#A98B7E" stroke-width="2.7" stroke-linecap="round"/><path d="M451.3 59.3 Q451.2 50.2 456.4 42.7" fill="none" stroke="#A98B7E" stroke-width="2.7" stroke-linecap="round"/><path d="M414.7 83.5 Q406.2 62.7 411.3 40.9" fill="none" stroke="#8C6A5D" stroke-width="4.1" stroke-linecap="round"/><path d="M411.3 40.9 Q414.6 32.7 422.0 28.0" fill="none" stroke="#A98B7E" stroke-width="2.7" stroke-linecap="round"/><path d="M411.3 40.9 Q403.5 37.6 399.1 30.3" fill="none" stroke="#A98B7E" stroke-width="2.7" stroke-linecap="round"/><path d="M320.0 168.1 Q331.7 141.1 357.0 126.0" fill="none" stroke="#8C6A5D" stroke-width="9.5" stroke-linecap="round"/><path d="M357.0 126.0 Q375.1 114.8 396.4 116.2" fill="none" stroke="#8C6A5D" stroke-width="6.3" stroke-linecap="round"/><path d="M396.4 116.2 Q411.5 109.7 427.5 113.1" fill="none" stroke="#8C6A5D" stroke-width="4.1" stroke-linecap="round"/><path d="M427.5 113.1 Q434.3 113.7 439.5 118.1" fill="none" stroke="#A98B7E" stroke-width="2.7" stroke-linecap="round"/><path d="M427.5 113.1 Q431.7 108.2 438.0 106.6" fill="none" stroke="#A98B7E" stroke-width="2.7" stroke-linecap="round"/><path d="M396.4 116.2 Q402.6 103.1 415.2 96.0" fill="none" stroke="#8C6A5D" stroke-width="4.1" stroke-linecap="round"/><path d="M415.2 96.0 Q420.3 92.4 426.5 92.4" fill="none" stroke="#A98B7E" stroke-width="2.7" stroke-linecap="round"/><path d="M415.2 96.0 Q414.1 90.1 416.6 84.7" fill="none" stroke="#A98B7E" stroke-width="2.7" stroke-linecap="round"/><path d="M357.0 126.0 Q350.5 106.5 356.6 86.8" fill="none" stroke="#8C6A5D" stroke-width="6.3" stroke-linecap="round"/><path d="M356.6 86.8 Q362.0 71.8 375.0 62.7" fill="none" stroke="#8C6A5D" stroke-width="4.1" stroke-linecap="round"/><path d="M375.0 62.7 Q379.4 58.0 385.8 56.7" fill="none" stroke="#A98B7E" stroke-width="2.7" stroke-linecap="round"/><path d="M375.0 62.7 Q373.5 56.2 376.0 50.0" fill="none" stroke="#A98B7E" stroke-width="2.7" stroke-linecap="round"/><path d="M356.6 86.8 Q345.2 78.0 341.1 64.3" fill="none" stroke="#8C6A5D" stroke-width="4.1" stroke-linecap="round"/><path d="M341.1 64.3 Q339.7 58.7 341.9 53.3" fill="none" stroke="#A98B7E" stroke-width="2.7" stroke-linecap="round"/><path d="M341.1 64.3 Q335.3 64.6 330.4 61.5" fill="none" stroke="#A98B7E" stroke-width="2.7" stroke-linecap="round"/><path d="M320.0 168.1 Q320.3 143.3 334.9 123.3" fill="none" stroke="#8C6A5D" stroke-width="9.5" stroke-linecap="round"/><path d="M334.9 123.3 Q347.7 111.3 365.1 109.0" fill="none" stroke="#8C6A5D" stroke-width="6.3" stroke-linecap="round"/><path d="M365.1 109.0 Q376.3 104.1 388.4 106.7" fill="none" stroke="#8C6A5D" stroke-width="4.1" stroke-linecap="round"/><path d="M388.4 106.7 Q393.5 106.8 397.5 109.9" fill="none" stroke="#A98B7E" stroke-width="2.7" stroke-linecap="round"/><path d="M388.4 106.7 Q391.6 102.8 396.6 101.5" fill="none" stroke="#A98B7E" stroke-width="2.7" stroke-linecap="round"/><path d="M365.1 109.0 Q366.9 96.2 375.7 86.9" fill="none" stroke="#8C6A5D" stroke-width="4.1" stroke-linecap="round"/><path d="M375.7 86.9 Q378.8 82.9 383.7 81.4" fill="none" stroke="#A98B7E" stroke-width="2.7" stroke-linecap="round"/><path d="M375.7 86.9 Q374.0 82.3 375.3 77.6" fill="none" stroke="#A98B7E" stroke-width="2.7" stroke-linecap="round"/><path d="M334.9 123.3 Q323.1 110.9 320.8 94.0" fill="none" stroke="#8C6A5D" stroke-width="6.3" stroke-linecap="round"/><path d="M320.8 94.0 Q320.1 81.0 327.0 70.1" fill="none" stroke="#8C6A5D" stroke-width="4.1" stroke-linecap="round"/><path d="M327.0 70.1 Q329.1 65.6 333.4 63.2" fill="none" stroke="#A98B7E" stroke-width="2.7" stroke-linecap="round"/><path d="M327.0 70.1 Q323.9 65.9 323.9 60.7" fill="none" stroke="#A98B7E" stroke-width="2.7" stroke-linecap="round"/><path d="M320.8 94.0 Q308.6 91.9 299.8 83.2" fill="none" stroke="#8C6A5D" stroke-width="4.1" stroke-linecap="round"/><path d="M299.8 83.2 Q296.7 79.7 296.2 75.0" fill="none" stroke="#A98B7E" stroke-width="2.7" stroke-linecap="round"/><path d="M299.8 83.2 Q295.2 85.6 290.0 84.9" fill="none" stroke="#A98B7E" stroke-width="2.7" stroke-linecap="round"/><path d="M320.0 168.1 Q312.8 145.4 320.0 122.8" fill="none" stroke="#8C6A5D" stroke-width="9.5" stroke-linecap="round"/><path d="M320.0 122.8 Q325.6 106.6 339.6 96.7" fill="none" stroke="#8C6A5D" stroke-width="6.3" stroke-linecap="round"/><path d="M339.6 96.7 Q349.9 90.4 361.9 91.3" fill="none" stroke="#8C6A5D" stroke-width="4.1" stroke-linecap="round"/><path d="M361.9 91.3 Q366.8 91.1 371.0 93.7" fill="none" stroke="#A98B7E" stroke-width="2.7" stroke-linecap="round"/><path d="M361.9 91.3 Q364.1 87.3 368.2 85.3" fill="none" stroke="#A98B7E" stroke-width="2.7" stroke-linecap="round"/><path d="M339.6 96.7 Q335.5 85.2 338.8 73.4" fill="none" stroke="#8C6A5D" stroke-width="4.1" stroke-linecap="round"/><path d="M338.8 73.4 Q340.2 68.7 344.1 65.7" fill="none" stroke="#A98B7E" stroke-width="2.7" stroke-linecap="round"/><path d="M338.8 73.4 Q334.7 70.2 333.3 65.2" fill="none" stroke="#A98B7E" stroke-width="2.7" stroke-linecap="round"/><path d="M320.0 122.8 Q305.4 115.8 297.5 101.6" fill="none" stroke="#8C6A5D" stroke-width="6.3" stroke-linecap="round"/><path d="M297.5 101.6 Q291.8 91.3 293.1 79.6" fill="none" stroke="#8C6A5D" stroke-width="4.1" stroke-linecap="round"/><path d="M293.1 79.6 Q294.4 74.9 298.3 71.9" fill="none" stroke="#A98B7E" stroke-width="2.7" stroke-linecap="round"/><path d="M293.1 79.6 Q288.5 77.9 285.8 73.8" fill="none" stroke="#A98B7E" stroke-width="2.7" stroke-linecap="round"/><path d="M297.5 101.6 Q285.4 103.1 274.6 97.4" fill="none" stroke="#8C6A5D" stroke-width="4.1" stroke-linecap="round"/><path d="M274.6 97.4 Q270.5 95.0 268.6 90.7" fill="none" stroke="#A98B7E" stroke-width="2.7" stroke-linecap="round"/><path d="M274.6 97.4 Q271.5 101.4 266.7 102.9" fill="none" stroke="#A98B7E" stroke-width="2.7" stroke-linecap="round"/><path d="M320.0 168.1 Q305.4 148.0 305.2 123.3" fill="none" stroke="#8C6A5D" stroke-width="9.5" stroke-linecap="round"/><path d="M305.2 123.3 Q301.5 104.9 309.1 87.8" fill="none" stroke="#8C6A5D" stroke-width="6.3" stroke-linecap="round"/><path d="M309.1 87.8 Q315.3 75.9 327.2 69.8" fill="none" stroke="#8C6A5D" stroke-width="4.1" stroke-linecap="round"/><path d="M327.2 69.8 Q331.7 67.3 336.7 67.9" fill="none" stroke="#A98B7E" stroke-width="2.7" stroke-linecap="round"/><path d="M327.2 69.8 Q326.4 64.2 328.8 59.2" fill="none" stroke="#A98B7E" stroke-width="2.7" stroke-linecap="round"/><path d="M309.1 87.8 Q298.0 78.7 294.2 64.8" fill="none" stroke="#8C6A5D" stroke-width="4.1" stroke-linecap="round"/><path d="M294.2 64.8 Q291.6 59.3 292.6 53.3" fill="none" stroke="#A98B7E" stroke-width="2.7" stroke-linecap="round"/><path d="M294.2 64.8 Q288.7 64.2 284.6 60.5" fill="none" stroke="#A98B7E" stroke-width="2.7" stroke-linecap="round"/><path d="M305.2 123.3 Q289.2 113.5 281.8 96.3" fill="none" stroke="#8C6A5D" stroke-width="6.3" stroke-linecap="round"/><path d="M281.8 96.3 Q277.4 83.4 281.2 70.3" fill="none" stroke="#8C6A5D" stroke-width="4.1" stroke-linecap="round"/><path d="M281.2 70.3 Q282.4 65.1 286.3 61.6" fill="none" stroke="#A98B7E" stroke-width="2.7" stroke-linecap="round"/><path d="M281.2 70.3 Q276.7 67.3 274.9 62.1" fill="none" stroke="#A98B7E" stroke-width="2.7" stroke-linecap="round"/><path d="M281.8 96.3 Q267.7 97.6 255.4 90.5" fill="none" stroke="#8C6A5D" stroke-width="4.1" stroke-linecap="round"/><path d="M255.4 90.5 Q250.2 88.5 247.1 83.8" fill="none" stroke="#A98B7E" stroke-width="2.7" stroke-linecap="round"/><path d="M255.4 90.5 Q250.5 93.1 245.0 92.4" fill="none" stroke="#A98B7E" stroke-width="2.7" stroke-linecap="round"/><path d="M320.0 168.1 Q294.8 152.9 283.1 126.0" fill="none" stroke="#8C6A5D" stroke-width="9.5" stroke-linecap="round"/><path d="M283.1 126.0 Q272.8 106.6 275.5 84.9" fill="none" stroke="#8C6A5D" stroke-width="6.3" stroke-linecap="round"/><path d="M275.5 84.9 Q274.6 69.4 282.9 56.3" fill="none" stroke="#8C6A5D" stroke-width="4.1" stroke-linecap="round"/><path d="M282.9 56.3 Q286.8 51.1 293.0 49.2" fill="none" stroke="#A98B7E" stroke-width="2.7" stroke-linecap="round"/><path d="M282.9 56.3 Q279.0 51.7 278.5 45.8" fill="none" stroke="#A98B7E" stroke-width="2.7" stroke-linecap="round"/><path d="M275.5 84.9 Q263.6 74.8 259.7 59.8" fill="none" stroke="#8C6A5D" stroke-width="4.1" stroke-linecap="round"/><path d="M259.7 59.8 Q257.5 53.6 259.3 47.2" fill="none" stroke="#A98B7E" stroke-width="2.7" stroke-linecap="round"/><path d="M259.7 59.8 Q253.5 59.3 248.6 55.3" fill="none" stroke="#A98B7E" stroke-width="2.7" stroke-linecap="round"/><path d="M283.1 126.0 Q261.0 124.4 243.8 110.2" fill="none" stroke="#8C6A5D" stroke-width="6.3" stroke-linecap="round"/><path d="M243.8 110.2 Q230.0 101.4 223.9 86.2" fill="none" stroke="#8C6A5D" stroke-width="4.1" stroke-linecap="round"/><path d="M223.9 86.2 Q220.8 80.3 221.7 73.7" fill="none" stroke="#A98B7E" stroke-width="2.7" stroke-linecap="round"/><path d="M223.9 86.2 Q216.9 86.4 211.2 82.5" fill="none" stroke="#A98B7E" stroke-width="2.7" stroke-linecap="round"/><path d="M243.8 110.2 Q227.2 113.8 211.7 107.0" fill="none" stroke="#8C6A5D" stroke-width="4.1" stroke-linecap="round"/><path d="M211.7 107.0 Q205.7 104.3 202.3 98.7" fill="none" stroke="#A98B7E" stroke-width="2.7" stroke-linecap="round"/><path d="M211.7 107.0 Q207.1 112.6 200.1 114.4" fill="none" stroke="#A98B7E" stroke-width="2.7" stroke-linecap="round"/><path d="M320.0 168.1 Q280.5 162.4 251.7 134.9" fill="none" stroke="#8C6A5D" stroke-width="9.5" stroke-linecap="round"/><path d="M251.7 134.9 Q229.4 117.9 221.1 91.1" fill="none" stroke="#8C6A5D" stroke-width="6.3" stroke-linecap="round"/><path d="M221.1 91.1 Q216.1 71.4 223.4 52.5" fill="none" stroke="#8C6A5D" stroke-width="4.1" stroke-linecap="round"/><path d="M223.4 52.5 Q226.3 44.5 233.3 39.6" fill="none" stroke="#A98B7E" stroke-width="2.7" stroke-linecap="round"/><path d="M223.4 52.5 Q217.3 47.9 215.0 40.6" fill="none" stroke="#A98B7E" stroke-width="2.7" stroke-linecap="round"/><path d="M221.1 91.1 Q200.5 91.8 183.3 80.4" fill="none" stroke="#8C6A5D" stroke-width="4.1" stroke-linecap="round"/><path d="M183.3 80.4 Q176.6 76.0 173.8 68.5" fill="none" stroke="#A98B7E" stroke-width="2.7" stroke-linecap="round"/><path d="M183.3 80.4 Q177.3 85.5 169.4 86.0" fill="none" stroke="#A98B7E" stroke-width="2.7" stroke-linecap="round"/><path d="M251.7 134.9 Q223.5 140.9 197.1 129.4" fill="none" stroke="#8C6A5D" stroke-width="6.3" stroke-linecap="round"/><path d="M197.1 129.4 Q178.6 117.5 170.6 97.1" fill="none" stroke="#8C6A5D" stroke-width="4.1" stroke-linecap="round"/><path d="M170.6 97.1 Q169.1 88.1 173.1 79.9" fill="none" stroke="#A98B7E" stroke-width="2.7" stroke-linecap="round"/><path d="M170.6 97.1 Q162.0 98.0 154.6 93.8" fill="none" stroke="#A98B7E" stroke-width="2.7" stroke-linecap="round"/><path d="M197.1 129.4 Q175.8 134.0 155.8 125.3" fill="none" stroke="#8C6A5D" stroke-width="4.1" stroke-linecap="round"/><path d="M155.8 125.3 Q147.6 122.6 142.5 115.7" fill="none" stroke="#A98B7E" stroke-width="2.7" stroke-linecap="round"/><path d="M155.8 125.3 Q149.3 130.9 140.7 131.6" fill="none" stroke="#A98B7E" stroke-width="2.7" stroke-linecap="round"/><ellipse cx="173.7" cy="124.8" rx="5.5" ry="9.4" fill="#FBE3EC" transform="rotate(3.407348994294505 173.7 134.3)"/><ellipse cx="173.7" cy="124.8" rx="5.5" ry="9.4" fill="#FBE3EC" transform="rotate(75.40734899429451 173.7 134.3)"/><ellipse cx="173.7" cy="124.8" rx="5.5" ry="9.4" fill="#FBE3EC" transform="rotate(147.4073489942945 173.7 134.3)"/><ellipse cx="173.7" cy="124.8" rx="5.5" ry="9.4" fill="#FBE3EC" transform="rotate(219.4073489942945 173.7 134.3)"/><ellipse cx="173.7" cy="124.8" rx="5.5" ry="9.4" fill="#FBE3EC" transform="rotate(291.4073489942945 173.7 134.3)"/><circle cx="173.7" cy="134.3" r="2.4" fill="#FFD84D"/><ellipse cx="165.1" cy="123.0" rx="5.0" ry="8.6" fill="#F2AECB" transform="rotate(36.75300857427766 165.1 131.7)"/><ellipse cx="165.1" cy="123.0" rx="5.0" ry="8.6" fill="#F2AECB" transform="rotate(108.75300857427766 165.1 131.7)"/><ellipse cx="165.1" cy="123.0" rx="5.0" ry="8.6" fill="#F2AECB" transform="rotate(180.75300857427766 165.1 131.7)"/><ellipse cx="165.1" cy="123.0" rx="5.0" ry="8.6" fill="#F2AECB" transform="rotate(252.75300857427766 165.1 131.7)"/><ellipse cx="165.1" cy="123.0" rx="5.0" ry="8.6" fill="#F2AECB" transform="rotate(324.75300857427766 165.1 131.7)"/><circle cx="165.1" cy="131.7" r="2.2" fill="#FFD84D"/><ellipse cx="473.1" cy="121.5" rx="4.5" ry="7.7" fill="#F2AECB" transform="rotate(57.97160489124158 473.1 129.2)"/><ellipse cx="473.1" cy="121.5" rx="4.5" ry="7.7" fill="#F2AECB" transform="rotate(129.97160489124158 473.1 129.2)"/><ellipse cx="473.1" cy="121.5" rx="4.5" ry="7.7" fill="#F2AECB" transform="rotate(201.97160489124158 473.1 129.2)"/><ellipse cx="473.1" cy="121.5" rx="4.5" ry="7.7" fill="#F2AECB" transform="rotate(273.97160489124155 473.1 129.2)"/><ellipse cx="473.1" cy="121.5" rx="4.5" ry="7.7" fill="#F2AECB" transform="rotate(345.97160489124155 473.1 129.2)"/><circle cx="473.1" cy="129.2" r="2.0" fill="#FFD84D"/><ellipse cx="465.1" cy="110.6" rx="5.5" ry="9.4" fill="#E896B8" transform="rotate(15.488980112101936 465.1 119.9)"/><ellipse cx="465.1" cy="110.6" rx="5.5" ry="9.4" fill="#E896B8" transform="rotate(87.48898011210194 465.1 119.9)"/><ellipse cx="465.1" cy="110.6" rx="5.5" ry="9.4" fill="#E896B8" transform="rotate(159.48898011210193 465.1 119.9)"/><ellipse cx="465.1" cy="110.6" rx="5.5" ry="9.4" fill="#E896B8" transform="rotate(231.48898011210193 465.1 119.9)"/><ellipse cx="465.1" cy="110.6" rx="5.5" ry="9.4" fill="#E896B8" transform="rotate(303.48898011210196 465.1 119.9)"/><circle cx="465.1" cy="119.9" r="2.4" fill="#FFD84D"/><ellipse cx="463.2" cy="104.8" rx="4.5" ry="7.8" fill="#F2AECB" transform="rotate(27.33676950703488 463.2 112.6)"/><ellipse cx="463.2" cy="104.8" rx="4.5" ry="7.8" fill="#F2AECB" transform="rotate(99.33676950703489 463.2 112.6)"/><ellipse cx="463.2" cy="104.8" rx="4.5" ry="7.8" fill="#F2AECB" transform="rotate(171.3367695070349 463.2 112.6)"/><ellipse cx="463.2" cy="104.8" rx="4.5" ry="7.8" fill="#F2AECB" transform="rotate(243.3367695070349 463.2 112.6)"/><ellipse cx="463.2" cy="104.8" rx="4.5" ry="7.8" fill="#F2AECB" transform="rotate(315.3367695070349 463.2 112.6)"/><circle cx="463.2" cy="112.6" r="2.0" fill="#FFD84D"/><ellipse cx="418.6" cy="107.8" rx="6.0" ry="10.4" fill="#F2AECB" transform="rotate(66.20555338554017 418.6 118.2)"/><ellipse cx="418.6" cy="107.8" rx="6.0" ry="10.4" fill="#F2AECB" transform="rotate(138.20555338554016 418.6 118.2)"/><ellipse cx="418.6" cy="107.8" rx="6.0" ry="10.4" fill="#F2AECB" transform="rotate(210.20555338554016 418.6 118.2)"/><ellipse cx="418.6" cy="107.8" rx="6.0" ry="10.4" fill="#F2AECB" transform="rotate(282.20555338554016 418.6 118.2)"/><ellipse cx="418.6" cy="107.8" rx="6.0" ry="10.4" fill="#F2AECB" transform="rotate(354.20555338554016 418.6 118.2)"/><circle cx="418.6" cy="118.2" r="2.7" fill="#FFD84D"/><ellipse cx="418.4" cy="105.2" rx="5.7" ry="9.9" fill="#E896B8" transform="rotate(52.851162375197944 418.4 115.1)"/><ellipse cx="418.4" cy="105.2" rx="5.7" ry="9.9" fill="#E896B8" transform="rotate(124.85116237519794 418.4 115.1)"/><ellipse cx="418.4" cy="105.2" rx="5.7" ry="9.9" fill="#E896B8" transform="rotate(196.85116237519793 418.4 115.1)"/><ellipse cx="418.4" cy="105.2" rx="5.7" ry="9.9" fill="#E896B8" transform="rotate(268.85116237519793 418.4 115.1)"/><ellipse cx="418.4" cy="105.2" rx="5.7" ry="9.9" fill="#E896B8" transform="rotate(340.85116237519793 418.4 115.1)"/><circle cx="418.4" cy="115.1" r="2.6" fill="#FFD84D"/><ellipse cx="174.8" cy="105.2" rx="5.9" ry="10.2" fill="#FBE3EC" transform="rotate(16.765898883587788 174.8 115.4)"/><ellipse cx="174.8" cy="105.2" rx="5.9" ry="10.2" fill="#FBE3EC" transform="rotate(88.7658988835878 174.8 115.4)"/><ellipse cx="174.8" cy="105.2" rx="5.9" ry="10.2" fill="#FBE3EC" transform="rotate(160.7658988835878 174.8 115.4)"/><ellipse cx="174.8" cy="105.2" rx="5.9" ry="10.2" fill="#FBE3EC" transform="rotate(232.7658988835878 174.8 115.4)"/><ellipse cx="174.8" cy="105.2" rx="5.9" ry="10.2" fill="#FBE3EC" transform="rotate(304.7658988835878 174.8 115.4)"/><circle cx="174.8" cy="115.4" r="2.6" fill="#FFD84D"/><ellipse cx="224.0" cy="103.6" rx="5.5" ry="9.4" fill="#F2AECB" transform="rotate(49.52719433050287 224.0 113.0)"/><ellipse cx="224.0" cy="103.6" rx="5.5" ry="9.4" fill="#F2AECB" transform="rotate(121.52719433050288 224.0 113.0)"/><ellipse cx="224.0" cy="103.6" rx="5.5" ry="9.4" fill="#F2AECB" transform="rotate(193.52719433050288 224.0 113.0)"/><ellipse cx="224.0" cy="103.6" rx="5.5" ry="9.4" fill="#F2AECB" transform="rotate(265.5271943305029 224.0 113.0)"/><ellipse cx="224.0" cy="103.6" rx="5.5" ry="9.4" fill="#F2AECB" transform="rotate(337.5271943305029 224.0 113.0)"/><circle cx="224.0" cy="113.0" r="2.4" fill="#FFD84D"/><ellipse cx="469.0" cy="100.0" rx="6.1" ry="10.4" fill="#E896B8" transform="rotate(59.009618937374626 469.0 110.4)"/><ellipse cx="469.0" cy="100.0" rx="6.1" ry="10.4" fill="#E896B8" transform="rotate(131.00961893737463 469.0 110.4)"/><ellipse cx="469.0" cy="100.0" rx="6.1" ry="10.4" fill="#E896B8" transform="rotate(203.00961893737463 469.0 110.4)"/><ellipse cx="469.0" cy="100.0" rx="6.1" ry="10.4" fill="#E896B8" transform="rotate(275.0096189373746 469.0 110.4)"/><ellipse cx="469.0" cy="100.0" rx="6.1" ry="10.4" fill="#E896B8" transform="rotate(347.0096189373746 469.0 110.4)"/><circle cx="469.0" cy="110.4" r="2.7" fill="#FFD84D"/><ellipse cx="221.5" cy="104.7" rx="4.4" ry="7.6" fill="#F2AECB" transform="rotate(34.55205804874057 221.5 112.4)"/><ellipse cx="221.5" cy="104.7" rx="4.4" ry="7.6" fill="#F2AECB" transform="rotate(106.55205804874058 221.5 112.4)"/><ellipse cx="221.5" cy="104.7" rx="4.4" ry="7.6" fill="#F2AECB" transform="rotate(178.55205804874058 221.5 112.4)"/><ellipse cx="221.5" cy="104.7" rx="4.4" ry="7.6" fill="#F2AECB" transform="rotate(250.55205804874058 221.5 112.4)"/><ellipse cx="221.5" cy="104.7" rx="4.4" ry="7.6" fill="#F2AECB" transform="rotate(322.55205804874055 221.5 112.4)"/><circle cx="221.5" cy="112.4" r="2.0" fill="#FFD84D"/><ellipse cx="387.9" cy="91.0" rx="5.8" ry="10.1" fill="#F2AECB" transform="rotate(37.19514511394002 387.9 101.1)"/><ellipse cx="387.9" cy="91.0" rx="5.8" ry="10.1" fill="#F2AECB" transform="rotate(109.19514511394001 387.9 101.1)"/><ellipse cx="387.9" cy="91.0" rx="5.8" ry="10.1" fill="#F2AECB" transform="rotate(181.19514511394001 387.9 101.1)"/><ellipse cx="387.9" cy="91.0" rx="5.8" ry="10.1" fill="#F2AECB" transform="rotate(253.19514511394001 387.9 101.1)"/><ellipse cx="387.9" cy="91.0" rx="5.8" ry="10.1" fill="#F2AECB" transform="rotate(325.19514511394004 387.9 101.1)"/><circle cx="387.9" cy="101.1" r="2.6" fill="#FFD84D"/><ellipse cx="376.0" cy="92.7" rx="4.8" ry="8.2" fill="#E896B8" transform="rotate(62.397322083733464 376.0 100.8)"/><ellipse cx="376.0" cy="92.7" rx="4.8" ry="8.2" fill="#E896B8" transform="rotate(134.39732208373346 376.0 100.8)"/><ellipse cx="376.0" cy="92.7" rx="4.8" ry="8.2" fill="#E896B8" transform="rotate(206.39732208373346 376.0 100.8)"/><ellipse cx="376.0" cy="92.7" rx="4.8" ry="8.2" fill="#E896B8" transform="rotate(278.39732208373346 376.0 100.8)"/><ellipse cx="376.0" cy="92.7" rx="4.8" ry="8.2" fill="#E896B8" transform="rotate(350.39732208373346 376.0 100.8)"/><circle cx="376.0" cy="100.8" r="2.1" fill="#FFD84D"/><ellipse cx="169.9" cy="100.3" rx="5.2" ry="9.0" fill="#F2AECB" transform="rotate(45.51876509837196 169.9 109.3)"/><ellipse cx="169.9" cy="100.3" rx="5.2" ry="9.0" fill="#F2AECB" transform="rotate(117.51876509837196 169.9 109.3)"/><ellipse cx="169.9" cy="100.3" rx="5.2" ry="9.0" fill="#F2AECB" transform="rotate(189.51876509837194 169.9 109.3)"/><ellipse cx="169.9" cy="100.3" rx="5.2" ry="9.0" fill="#F2AECB" transform="rotate(261.51876509837194 169.9 109.3)"/><ellipse cx="169.9" cy="100.3" rx="5.2" ry="9.0" fill="#F2AECB" transform="rotate(333.51876509837194 169.9 109.3)"/><circle cx="169.9" cy="109.3" r="2.3" fill="#FFD84D"/><ellipse cx="408.7" cy="92.5" rx="5.4" ry="9.4" fill="#FBE3EC" transform="rotate(2.950442404172973 408.7 101.8)"/><ellipse cx="408.7" cy="92.5" rx="5.4" ry="9.4" fill="#FBE3EC" transform="rotate(74.95044240417297 408.7 101.8)"/><ellipse cx="408.7" cy="92.5" rx="5.4" ry="9.4" fill="#FBE3EC" transform="rotate(146.95044240417297 408.7 101.8)"/><ellipse cx="408.7" cy="92.5" rx="5.4" ry="9.4" fill="#FBE3EC" transform="rotate(218.95044240417297 408.7 101.8)"/><ellipse cx="408.7" cy="92.5" rx="5.4" ry="9.4" fill="#FBE3EC" transform="rotate(290.950442404173 408.7 101.8)"/><circle cx="408.7" cy="101.8" r="2.4" fill="#FFD84D"/><ellipse cx="281.3" cy="92.4" rx="5.2" ry="8.9" fill="#E896B8" transform="rotate(60.05365750119259 281.3 101.3)"/><ellipse cx="281.3" cy="92.4" rx="5.2" ry="8.9" fill="#E896B8" transform="rotate(132.0536575011926 281.3 101.3)"/><ellipse cx="281.3" cy="92.4" rx="5.2" ry="8.9" fill="#E896B8" transform="rotate(204.0536575011926 281.3 101.3)"/><ellipse cx="281.3" cy="92.4" rx="5.2" ry="8.9" fill="#E896B8" transform="rotate(276.05365750119256 281.3 101.3)"/><ellipse cx="281.3" cy="92.4" rx="5.2" ry="8.9" fill="#E896B8" transform="rotate(348.05365750119256 281.3 101.3)"/><circle cx="281.3" cy="101.3" r="2.3" fill="#FFD84D"/><ellipse cx="280.2" cy="95.1" rx="4.8" ry="8.3" fill="#F2AECB" transform="rotate(24.503487263689763 280.2 103.4)"/><ellipse cx="280.2" cy="95.1" rx="4.8" ry="8.3" fill="#F2AECB" transform="rotate(96.50348726368976 280.2 103.4)"/><ellipse cx="280.2" cy="95.1" rx="4.8" ry="8.3" fill="#F2AECB" transform="rotate(168.50348726368975 280.2 103.4)"/><ellipse cx="280.2" cy="95.1" rx="4.8" ry="8.3" fill="#F2AECB" transform="rotate(240.50348726368975 280.2 103.4)"/><ellipse cx="280.2" cy="95.1" rx="4.8" ry="8.3" fill="#F2AECB" transform="rotate(312.50348726368975 280.2 103.4)"/><circle cx="280.2" cy="103.4" r="2.1" fill="#FFD84D"/><ellipse cx="407.8" cy="85.0" rx="4.8" ry="8.3" fill="#F2AECB" transform="rotate(1.922184102879263 407.8 93.3)"/><ellipse cx="407.8" cy="85.0" rx="4.8" ry="8.3" fill="#F2AECB" transform="rotate(73.92218410287926 407.8 93.3)"/><ellipse cx="407.8" cy="85.0" rx="4.8" ry="8.3" fill="#F2AECB" transform="rotate(145.92218410287927 407.8 93.3)"/><ellipse cx="407.8" cy="85.0" rx="4.8" ry="8.3" fill="#F2AECB" transform="rotate(217.92218410287927 407.8 93.3)"/><ellipse cx="407.8" cy="85.0" rx="4.8" ry="8.3" fill="#F2AECB" transform="rotate(289.92218410287927 407.8 93.3)"/><circle cx="407.8" cy="93.3" r="2.2" fill="#FFD84D"/><ellipse cx="236.1" cy="83.9" rx="6.1" ry="10.5" fill="#E896B8" transform="rotate(44.93438884768068 236.1 94.4)"/><ellipse cx="236.1" cy="83.9" rx="6.1" ry="10.5" fill="#E896B8" transform="rotate(116.93438884768068 236.1 94.4)"/><ellipse cx="236.1" cy="83.9" rx="6.1" ry="10.5" fill="#E896B8" transform="rotate(188.93438884768068 236.1 94.4)"/><ellipse cx="236.1" cy="83.9" rx="6.1" ry="10.5" fill="#E896B8" transform="rotate(260.9343888476807 236.1 94.4)"/><ellipse cx="236.1" cy="83.9" rx="6.1" ry="10.5" fill="#E896B8" transform="rotate(332.9343888476807 236.1 94.4)"/><circle cx="236.1" cy="94.4" r="2.7" fill="#FFD84D"/><ellipse cx="265.3" cy="91.8" rx="4.7" ry="8.1" fill="#F2AECB" transform="rotate(69.14556742184078 265.3 99.9)"/><ellipse cx="265.3" cy="91.8" rx="4.7" ry="8.1" fill="#F2AECB" transform="rotate(141.14556742184078 265.3 99.9)"/><ellipse cx="265.3" cy="91.8" rx="4.7" ry="8.1" fill="#F2AECB" transform="rotate(213.14556742184078 265.3 99.9)"/><ellipse cx="265.3" cy="91.8" rx="4.7" ry="8.1" fill="#F2AECB" transform="rotate(285.1455674218408 265.3 99.9)"/><ellipse cx="265.3" cy="91.8" rx="4.7" ry="8.1" fill="#F2AECB" transform="rotate(357.1455674218408 265.3 99.9)"/><circle cx="265.3" cy="99.9" r="2.1" fill="#FFD84D"/><ellipse cx="368.5" cy="82.6" rx="4.5" ry="7.8" fill="#F2AECB" transform="rotate(54.131741687185 368.5 90.3)"/><ellipse cx="368.5" cy="82.6" rx="4.5" ry="7.8" fill="#F2AECB" transform="rotate(126.131741687185 368.5 90.3)"/><ellipse cx="368.5" cy="82.6" rx="4.5" ry="7.8" fill="#F2AECB" transform="rotate(198.131741687185 368.5 90.3)"/><ellipse cx="368.5" cy="82.6" rx="4.5" ry="7.8" fill="#F2AECB" transform="rotate(270.131741687185 368.5 90.3)"/><ellipse cx="368.5" cy="82.6" rx="4.5" ry="7.8" fill="#F2AECB" transform="rotate(342.131741687185 368.5 90.3)"/><circle cx="368.5" cy="90.3" r="2.0" fill="#FFD84D"/><ellipse cx="255.9" cy="79.7" rx="5.1" ry="8.7" fill="#FBE3EC" transform="rotate(38.778334315207125 255.9 88.4)"/><ellipse cx="255.9" cy="79.7" rx="5.1" ry="8.7" fill="#FBE3EC" transform="rotate(110.77833431520713 255.9 88.4)"/><ellipse cx="255.9" cy="79.7" rx="5.1" ry="8.7" fill="#FBE3EC" transform="rotate(182.77833431520713 255.9 88.4)"/><ellipse cx="255.9" cy="79.7" rx="5.1" ry="8.7" fill="#FBE3EC" transform="rotate(254.77833431520713 255.9 88.4)"/><ellipse cx="255.9" cy="79.7" rx="5.1" ry="8.7" fill="#FBE3EC" transform="rotate(326.77833431520713 255.9 88.4)"/><circle cx="255.9" cy="88.4" r="2.2" fill="#FFD84D"/><ellipse cx="358.9" cy="83.0" rx="6.0" ry="10.4" fill="#F2AECB" transform="rotate(32.763392320880314 358.9 93.4)"/><ellipse cx="358.9" cy="83.0" rx="6.0" ry="10.4" fill="#F2AECB" transform="rotate(104.76339232088031 358.9 93.4)"/><ellipse cx="358.9" cy="83.0" rx="6.0" ry="10.4" fill="#F2AECB" transform="rotate(176.7633923208803 358.9 93.4)"/><ellipse cx="358.9" cy="83.0" rx="6.0" ry="10.4" fill="#F2AECB" transform="rotate(248.7633923208803 358.9 93.4)"/><ellipse cx="358.9" cy="83.0" rx="6.0" ry="10.4" fill="#F2AECB" transform="rotate(320.7633923208803 358.9 93.4)"/><circle cx="358.9" cy="93.4" r="2.7" fill="#FFD84D"/><ellipse cx="356.5" cy="84.8" rx="4.4" ry="7.5" fill="#F2AECB" transform="rotate(63.93034493572642 356.5 92.4)"/><ellipse cx="356.5" cy="84.8" rx="4.4" ry="7.5" fill="#F2AECB" transform="rotate(135.93034493572642 356.5 92.4)"/><ellipse cx="356.5" cy="84.8" rx="4.4" ry="7.5" fill="#F2AECB" transform="rotate(207.93034493572642 356.5 92.4)"/><ellipse cx="356.5" cy="84.8" rx="4.4" ry="7.5" fill="#F2AECB" transform="rotate(279.9303449357264 356.5 92.4)"/><ellipse cx="356.5" cy="84.8" rx="4.4" ry="7.5" fill="#F2AECB" transform="rotate(351.9303449357264 356.5 92.4)"/><circle cx="356.5" cy="92.4" r="1.9" fill="#FFD84D"/><ellipse cx="229.2" cy="80.6" rx="5.1" ry="8.8" fill="#E896B8" transform="rotate(10.24318368595773 229.2 89.4)"/><ellipse cx="229.2" cy="80.6" rx="5.1" ry="8.8" fill="#E896B8" transform="rotate(82.24318368595773 229.2 89.4)"/><ellipse cx="229.2" cy="80.6" rx="5.1" ry="8.8" fill="#E896B8" transform="rotate(154.24318368595772 229.2 89.4)"/><ellipse cx="229.2" cy="80.6" rx="5.1" ry="8.8" fill="#E896B8" transform="rotate(226.24318368595772 229.2 89.4)"/><ellipse cx="229.2" cy="80.6" rx="5.1" ry="8.8" fill="#E896B8" transform="rotate(298.2431836859577 229.2 89.4)"/><circle cx="229.2" cy="89.4" r="2.3" fill="#FFD84D"/><ellipse cx="373.6" cy="87.4" rx="4.6" ry="7.9" fill="#F2AECB" transform="rotate(51.60109045726971 373.6 95.2)"/><ellipse cx="373.6" cy="87.4" rx="4.6" ry="7.9" fill="#F2AECB" transform="rotate(123.60109045726972 373.6 95.2)"/><ellipse cx="373.6" cy="87.4" rx="4.6" ry="7.9" fill="#F2AECB" transform="rotate(195.60109045726972 373.6 95.2)"/><ellipse cx="373.6" cy="87.4" rx="4.6" ry="7.9" fill="#F2AECB" transform="rotate(267.6010904572697 373.6 95.2)"/><ellipse cx="373.6" cy="87.4" rx="4.6" ry="7.9" fill="#F2AECB" transform="rotate(339.6010904572697 373.6 95.2)"/><circle cx="373.6" cy="95.2" r="2.0" fill="#FFD84D"/><ellipse cx="311.4" cy="75.7" rx="4.8" ry="8.3" fill="#F2AECB" transform="rotate(5.4418844139091975 311.4 84.0)"/><ellipse cx="311.4" cy="75.7" rx="4.8" ry="8.3" fill="#F2AECB" transform="rotate(77.4418844139092 311.4 84.0)"/><ellipse cx="311.4" cy="75.7" rx="4.8" ry="8.3" fill="#F2AECB" transform="rotate(149.4418844139092 311.4 84.0)"/><ellipse cx="311.4" cy="75.7" rx="4.8" ry="8.3" fill="#F2AECB" transform="rotate(221.4418844139092 311.4 84.0)"/><ellipse cx="311.4" cy="75.7" rx="4.8" ry="8.3" fill="#F2AECB" transform="rotate(293.4418844139092 311.4 84.0)"/><circle cx="311.4" cy="84.0" r="2.1" fill="#FFD84D"/><ellipse cx="288.0" cy="83.8" rx="5.8" ry="10.0" fill="#E896B8" transform="rotate(14.875494469147714 288.0 93.8)"/><ellipse cx="288.0" cy="83.8" rx="5.8" ry="10.0" fill="#E896B8" transform="rotate(86.87549446914771 288.0 93.8)"/><ellipse cx="288.0" cy="83.8" rx="5.8" ry="10.0" fill="#E896B8" transform="rotate(158.87549446914772 288.0 93.8)"/><ellipse cx="288.0" cy="83.8" rx="5.8" ry="10.0" fill="#E896B8" transform="rotate(230.87549446914772 288.0 93.8)"/><ellipse cx="288.0" cy="83.8" rx="5.8" ry="10.0" fill="#E896B8" transform="rotate(302.8754944691477 288.0 93.8)"/><circle cx="288.0" cy="93.8" r="2.6" fill="#FFD84D"/><ellipse cx="194.9" cy="80.7" rx="5.0" ry="8.6" fill="#FBE3EC" transform="rotate(30.513932509582034 194.9 89.3)"/><ellipse cx="194.9" cy="80.7" rx="5.0" ry="8.6" fill="#FBE3EC" transform="rotate(102.51393250958203 194.9 89.3)"/><ellipse cx="194.9" cy="80.7" rx="5.0" ry="8.6" fill="#FBE3EC" transform="rotate(174.51393250958205 194.9 89.3)"/><ellipse cx="194.9" cy="80.7" rx="5.0" ry="8.6" fill="#FBE3EC" transform="rotate(246.51393250958205 194.9 89.3)"/><ellipse cx="194.9" cy="80.7" rx="5.0" ry="8.6" fill="#FBE3EC" transform="rotate(318.51393250958205 194.9 89.3)"/><circle cx="194.9" cy="89.3" r="2.2" fill="#FFD84D"/><ellipse cx="303.2" cy="81.3" rx="5.9" ry="10.1" fill="#F2AECB" transform="rotate(61.05758553125988 303.2 91.4)"/><ellipse cx="303.2" cy="81.3" rx="5.9" ry="10.1" fill="#F2AECB" transform="rotate(133.0575855312599 303.2 91.4)"/><ellipse cx="303.2" cy="81.3" rx="5.9" ry="10.1" fill="#F2AECB" transform="rotate(205.0575855312599 303.2 91.4)"/><ellipse cx="303.2" cy="81.3" rx="5.9" ry="10.1" fill="#F2AECB" transform="rotate(277.05758553125986 303.2 91.4)"/><ellipse cx="303.2" cy="81.3" rx="5.9" ry="10.1" fill="#F2AECB" transform="rotate(349.05758553125986 303.2 91.4)"/><circle cx="303.2" cy="91.4" r="2.6" fill="#FFD84D"/><ellipse cx="185.2" cy="71.2" rx="5.4" ry="9.3" fill="#E896B8" transform="rotate(52.20526519404815 185.2 80.6)"/><ellipse cx="185.2" cy="71.2" rx="5.4" ry="9.3" fill="#E896B8" transform="rotate(124.20526519404815 185.2 80.6)"/><ellipse cx="185.2" cy="71.2" rx="5.4" ry="9.3" fill="#E896B8" transform="rotate(196.20526519404814 185.2 80.6)"/><ellipse cx="185.2" cy="71.2" rx="5.4" ry="9.3" fill="#E896B8" transform="rotate(268.20526519404814 185.2 80.6)"/><ellipse cx="185.2" cy="71.2" rx="5.4" ry="9.3" fill="#E896B8" transform="rotate(340.20526519404814 185.2 80.6)"/><circle cx="185.2" cy="80.6" r="2.4" fill="#FFD84D"/><ellipse cx="287.9" cy="78.9" rx="6.0" ry="10.4" fill="#F2AECB" transform="rotate(43.75987263205684 287.9 89.3)"/><ellipse cx="287.9" cy="78.9" rx="6.0" ry="10.4" fill="#F2AECB" transform="rotate(115.75987263205684 287.9 89.3)"/><ellipse cx="287.9" cy="78.9" rx="6.0" ry="10.4" fill="#F2AECB" transform="rotate(187.75987263205684 287.9 89.3)"/><ellipse cx="287.9" cy="78.9" rx="6.0" ry="10.4" fill="#F2AECB" transform="rotate(259.75987263205684 287.9 89.3)"/><ellipse cx="287.9" cy="78.9" rx="6.0" ry="10.4" fill="#F2AECB" transform="rotate(331.75987263205684 287.9 89.3)"/><circle cx="287.9" cy="89.3" r="2.7" fill="#FFD84D"/><ellipse cx="337.8" cy="66.5" rx="5.7" ry="9.8" fill="#F2AECB" transform="rotate(19.19410484559735 337.8 76.3)"/><ellipse cx="337.8" cy="66.5" rx="5.7" ry="9.8" fill="#F2AECB" transform="rotate(91.19410484559735 337.8 76.3)"/><ellipse cx="337.8" cy="66.5" rx="5.7" ry="9.8" fill="#F2AECB" transform="rotate(163.19410484559734 337.8 76.3)"/><ellipse cx="337.8" cy="66.5" rx="5.7" ry="9.8" fill="#F2AECB" transform="rotate(235.19410484559734 337.8 76.3)"/><ellipse cx="337.8" cy="66.5" rx="5.7" ry="9.8" fill="#F2AECB" transform="rotate(307.19410484559734 337.8 76.3)"/><circle cx="337.8" cy="76.3" r="2.5" fill="#FFD84D"/><ellipse cx="274.3" cy="76.6" rx="5.3" ry="9.2" fill="#E896B8" transform="rotate(59.451824894381 274.3 85.8)"/><ellipse cx="274.3" cy="76.6" rx="5.3" ry="9.2" fill="#E896B8" transform="rotate(131.451824894381 274.3 85.8)"/><ellipse cx="274.3" cy="76.6" rx="5.3" ry="9.2" fill="#E896B8" transform="rotate(203.451824894381 274.3 85.8)"/><ellipse cx="274.3" cy="76.6" rx="5.3" ry="9.2" fill="#E896B8" transform="rotate(275.451824894381 274.3 85.8)"/><ellipse cx="274.3" cy="76.6" rx="5.3" ry="9.2" fill="#E896B8" transform="rotate(347.451824894381 274.3 85.8)"/><circle cx="274.3" cy="85.8" r="2.4" fill="#FFD84D"/><ellipse cx="324.3" cy="74.2" rx="4.7" ry="8.2" fill="#F2AECB" transform="rotate(40.91900505866094 324.3 82.4)"/><ellipse cx="324.3" cy="74.2" rx="4.7" ry="8.2" fill="#F2AECB" transform="rotate(112.91900505866094 324.3 82.4)"/><ellipse cx="324.3" cy="74.2" rx="4.7" ry="8.2" fill="#F2AECB" transform="rotate(184.91900505866096 324.3 82.4)"/><ellipse cx="324.3" cy="74.2" rx="4.7" ry="8.2" fill="#F2AECB" transform="rotate(256.91900505866096 324.3 82.4)"/><ellipse cx="324.3" cy="74.2" rx="4.7" ry="8.2" fill="#F2AECB" transform="rotate(328.91900505866096 324.3 82.4)"/><circle cx="324.3" cy="82.4" r="2.1" fill="#FFD84D"/><ellipse cx="332.6" cy="70.4" rx="5.3" ry="9.1" fill="#FBE3EC" transform="rotate(39.0153230327386 332.6 79.6)"/><ellipse cx="332.6" cy="70.4" rx="5.3" ry="9.1" fill="#FBE3EC" transform="rotate(111.01532303273859 332.6 79.6)"/><ellipse cx="332.6" cy="70.4" rx="5.3" ry="9.1" fill="#FBE3EC" transform="rotate(183.0153230327386 332.6 79.6)"/><ellipse cx="332.6" cy="70.4" rx="5.3" ry="9.1" fill="#FBE3EC" transform="rotate(255.0153230327386 332.6 79.6)"/><ellipse cx="332.6" cy="70.4" rx="5.3" ry="9.1" fill="#FBE3EC" transform="rotate(327.0153230327386 332.6 79.6)"/><circle cx="332.6" cy="79.6" r="2.4" fill="#FFD84D"/><ellipse cx="314.3" cy="68.3" rx="4.8" ry="8.3" fill="#E896B8" transform="rotate(3.367476015379909 314.3 76.7)"/><ellipse cx="314.3" cy="68.3" rx="4.8" ry="8.3" fill="#E896B8" transform="rotate(75.3674760153799 314.3 76.7)"/><ellipse cx="314.3" cy="68.3" rx="4.8" ry="8.3" fill="#E896B8" transform="rotate(147.3674760153799 314.3 76.7)"/><ellipse cx="314.3" cy="68.3" rx="4.8" ry="8.3" fill="#E896B8" transform="rotate(219.3674760153799 314.3 76.7)"/><ellipse cx="314.3" cy="68.3" rx="4.8" ry="8.3" fill="#E896B8" transform="rotate(291.3674760153799 314.3 76.7)"/><circle cx="314.3" cy="76.7" r="2.2" fill="#FFD84D"/><ellipse cx="300.5" cy="61.1" rx="4.3" ry="7.5" fill="#F2AECB" transform="rotate(50.568882539313975 300.5 68.5)"/><ellipse cx="300.5" cy="61.1" rx="4.3" ry="7.5" fill="#F2AECB" transform="rotate(122.56888253931398 300.5 68.5)"/><ellipse cx="300.5" cy="61.1" rx="4.3" ry="7.5" fill="#F2AECB" transform="rotate(194.56888253931396 300.5 68.5)"/><ellipse cx="300.5" cy="61.1" rx="4.3" ry="7.5" fill="#F2AECB" transform="rotate(266.56888253931396 300.5 68.5)"/><ellipse cx="300.5" cy="61.1" rx="4.3" ry="7.5" fill="#F2AECB" transform="rotate(338.56888253931396 300.5 68.5)"/><circle cx="300.5" cy="68.5" r="1.9" fill="#FFD84D"/><ellipse cx="285.4" cy="61.9" rx="4.7" ry="8.1" fill="#F2AECB" transform="rotate(25.704791759393608 285.4 70.0)"/><ellipse cx="285.4" cy="61.9" rx="4.7" ry="8.1" fill="#F2AECB" transform="rotate(97.7047917593936 285.4 70.0)"/><ellipse cx="285.4" cy="61.9" rx="4.7" ry="8.1" fill="#F2AECB" transform="rotate(169.7047917593936 285.4 70.0)"/><ellipse cx="285.4" cy="61.9" rx="4.7" ry="8.1" fill="#F2AECB" transform="rotate(241.7047917593936 285.4 70.0)"/><ellipse cx="285.4" cy="61.9" rx="4.7" ry="8.1" fill="#F2AECB" transform="rotate(313.70479175939363 285.4 70.0)"/><circle cx="285.4" cy="70.0" r="2.1" fill="#FFD84D"/><ellipse cx="339.9" cy="66.1" rx="5.0" ry="8.6" fill="#E896B8" transform="rotate(8.944152877848893 339.9 74.7)"/><ellipse cx="339.9" cy="66.1" rx="5.0" ry="8.6" fill="#E896B8" transform="rotate(80.9441528778489 339.9 74.7)"/><ellipse cx="339.9" cy="66.1" rx="5.0" ry="8.6" fill="#E896B8" transform="rotate(152.9441528778489 339.9 74.7)"/><ellipse cx="339.9" cy="66.1" rx="5.0" ry="8.6" fill="#E896B8" transform="rotate(224.9441528778489 339.9 74.7)"/><ellipse cx="339.9" cy="66.1" rx="5.0" ry="8.6" fill="#E896B8" transform="rotate(296.94415287784886 339.9 74.7)"/><circle cx="339.9" cy="74.7" r="2.2" fill="#FFD84D"/><ellipse cx="327.4" cy="68.8" rx="5.6" ry="9.6" fill="#F2AECB" transform="rotate(34.00846732799593 327.4 78.4)"/><ellipse cx="327.4" cy="68.8" rx="5.6" ry="9.6" fill="#F2AECB" transform="rotate(106.00846732799593 327.4 78.4)"/><ellipse cx="327.4" cy="68.8" rx="5.6" ry="9.6" fill="#F2AECB" transform="rotate(178.00846732799593 327.4 78.4)"/><ellipse cx="327.4" cy="68.8" rx="5.6" ry="9.6" fill="#F2AECB" transform="rotate(250.00846732799593 327.4 78.4)"/><ellipse cx="327.4" cy="68.8" rx="5.6" ry="9.6" fill="#F2AECB" transform="rotate(322.00846732799596 327.4 78.4)"/><circle cx="327.4" cy="78.4" r="2.5" fill="#FFD84D"/><ellipse cx="323.2" cy="59.8" rx="5.2" ry="8.9" fill="#F2AECB" transform="rotate(1.7167505398873226 323.2 68.6)"/><ellipse cx="323.2" cy="59.8" rx="5.2" ry="8.9" fill="#F2AECB" transform="rotate(73.71675053988733 323.2 68.6)"/><ellipse cx="323.2" cy="59.8" rx="5.2" ry="8.9" fill="#F2AECB" transform="rotate(145.71675053988733 323.2 68.6)"/><ellipse cx="323.2" cy="59.8" rx="5.2" ry="8.9" fill="#F2AECB" transform="rotate(217.71675053988733 323.2 68.6)"/><ellipse cx="323.2" cy="59.8" rx="5.2" ry="8.9" fill="#F2AECB" transform="rotate(289.7167505398873 323.2 68.6)"/><circle cx="323.2" cy="68.6" r="2.3" fill="#FFD84D"/><ellipse cx="257.6" cy="59.5" rx="5.3" ry="9.1" fill="#FBE3EC" transform="rotate(60.859914555876635 257.6 68.5)"/><ellipse cx="257.6" cy="59.5" rx="5.3" ry="9.1" fill="#FBE3EC" transform="rotate(132.85991455587663 257.6 68.5)"/><ellipse cx="257.6" cy="59.5" rx="5.3" ry="9.1" fill="#FBE3EC" transform="rotate(204.85991455587663 257.6 68.5)"/><ellipse cx="257.6" cy="59.5" rx="5.3" ry="9.1" fill="#FBE3EC" transform="rotate(276.8599145558766 257.6 68.5)"/><ellipse cx="257.6" cy="59.5" rx="5.3" ry="9.1" fill="#FBE3EC" transform="rotate(348.8599145558766 257.6 68.5)"/><circle cx="257.6" cy="68.5" r="2.3" fill="#FFD84D"/><ellipse cx="367.8" cy="67.3" rx="5.4" ry="9.2" fill="#F2AECB" transform="rotate(36.95042550341907 367.8 76.5)"/><ellipse cx="367.8" cy="67.3" rx="5.4" ry="9.2" fill="#F2AECB" transform="rotate(108.95042550341907 367.8 76.5)"/><ellipse cx="367.8" cy="67.3" rx="5.4" ry="9.2" fill="#F2AECB" transform="rotate(180.95042550341907 367.8 76.5)"/><ellipse cx="367.8" cy="67.3" rx="5.4" ry="9.2" fill="#F2AECB" transform="rotate(252.95042550341907 367.8 76.5)"/><ellipse cx="367.8" cy="67.3" rx="5.4" ry="9.2" fill="#F2AECB" transform="rotate(324.95042550341907 367.8 76.5)"/><circle cx="367.8" cy="76.5" r="2.4" fill="#FFD84D"/><ellipse cx="301.7" cy="58.3" rx="5.2" ry="9.0" fill="#F2AECB" transform="rotate(0.980197490704839 301.7 67.3)"/><ellipse cx="301.7" cy="58.3" rx="5.2" ry="9.0" fill="#F2AECB" transform="rotate(72.98019749070484 301.7 67.3)"/><ellipse cx="301.7" cy="58.3" rx="5.2" ry="9.0" fill="#F2AECB" transform="rotate(144.98019749070482 301.7 67.3)"/><ellipse cx="301.7" cy="58.3" rx="5.2" ry="9.0" fill="#F2AECB" transform="rotate(216.98019749070482 301.7 67.3)"/><ellipse cx="301.7" cy="58.3" rx="5.2" ry="9.0" fill="#F2AECB" transform="rotate(288.9801974907048 301.7 67.3)"/><circle cx="301.7" cy="67.3" r="2.3" fill="#FFD84D"/><ellipse cx="344.9" cy="55.8" rx="5.8" ry="9.9" fill="#E896B8" transform="rotate(71.90547427034493 344.9 65.7)"/><ellipse cx="344.9" cy="55.8" rx="5.8" ry="9.9" fill="#E896B8" transform="rotate(143.90547427034494 344.9 65.7)"/><ellipse cx="344.9" cy="55.8" rx="5.8" ry="9.9" fill="#E896B8" transform="rotate(215.90547427034494 344.9 65.7)"/><ellipse cx="344.9" cy="55.8" rx="5.8" ry="9.9" fill="#E896B8" transform="rotate(287.90547427034494 344.9 65.7)"/><ellipse cx="344.9" cy="55.8" rx="5.8" ry="9.9" fill="#E896B8" transform="rotate(359.90547427034494 344.9 65.7)"/><circle cx="344.9" cy="65.7" r="2.6" fill="#FFD84D"/><ellipse cx="219.5" cy="64.4" rx="4.6" ry="7.9" fill="#F2AECB" transform="rotate(43.46402939941006 219.5 72.3)"/><ellipse cx="219.5" cy="64.4" rx="4.6" ry="7.9" fill="#F2AECB" transform="rotate(115.46402939941007 219.5 72.3)"/><ellipse cx="219.5" cy="64.4" rx="4.6" ry="7.9" fill="#F2AECB" transform="rotate(187.46402939941007 219.5 72.3)"/><ellipse cx="219.5" cy="64.4" rx="4.6" ry="7.9" fill="#F2AECB" transform="rotate(259.46402939941004 219.5 72.3)"/><ellipse cx="219.5" cy="64.4" rx="4.6" ry="7.9" fill="#F2AECB" transform="rotate(331.46402939941004 219.5 72.3)"/><circle cx="219.5" cy="72.3" r="2.0" fill="#FFD84D"/><ellipse cx="276.9" cy="54.7" rx="5.2" ry="8.9" fill="#F2AECB" transform="rotate(24.052500218240493 276.9 63.6)"/><ellipse cx="276.9" cy="54.7" rx="5.2" ry="8.9" fill="#F2AECB" transform="rotate(96.0525002182405 276.9 63.6)"/><ellipse cx="276.9" cy="54.7" rx="5.2" ry="8.9" fill="#F2AECB" transform="rotate(168.05250021824048 276.9 63.6)"/><ellipse cx="276.9" cy="54.7" rx="5.2" ry="8.9" fill="#F2AECB" transform="rotate(240.05250021824048 276.9 63.6)"/><ellipse cx="276.9" cy="54.7" rx="5.2" ry="8.9" fill="#F2AECB" transform="rotate(312.0525002182405 276.9 63.6)"/><circle cx="276.9" cy="63.6" r="2.3" fill="#FFD84D"/><ellipse cx="372.0" cy="56.5" rx="4.8" ry="8.3" fill="#E896B8" transform="rotate(69.94064395870237 372.0 64.8)"/><ellipse cx="372.0" cy="56.5" rx="4.8" ry="8.3" fill="#E896B8" transform="rotate(141.94064395870237 372.0 64.8)"/><ellipse cx="372.0" cy="56.5" rx="4.8" ry="8.3" fill="#E896B8" transform="rotate(213.94064395870237 372.0 64.8)"/><ellipse cx="372.0" cy="56.5" rx="4.8" ry="8.3" fill="#E896B8" transform="rotate(285.94064395870237 372.0 64.8)"/><ellipse cx="372.0" cy="56.5" rx="4.8" ry="8.3" fill="#E896B8" transform="rotate(357.94064395870237 372.0 64.8)"/><circle cx="372.0" cy="64.8" r="2.1" fill="#FFD84D"/><ellipse cx="436.9" cy="59.4" rx="5.3" ry="9.1" fill="#FBE3EC" transform="rotate(67.23817467123075 436.9 68.4)"/><ellipse cx="436.9" cy="59.4" rx="5.3" ry="9.1" fill="#FBE3EC" transform="rotate(139.23817467123075 436.9 68.4)"/><ellipse cx="436.9" cy="59.4" rx="5.3" ry="9.1" fill="#FBE3EC" transform="rotate(211.23817467123075 436.9 68.4)"/><ellipse cx="436.9" cy="59.4" rx="5.3" ry="9.1" fill="#FBE3EC" transform="rotate(283.23817467123075 436.9 68.4)"/><ellipse cx="436.9" cy="59.4" rx="5.3" ry="9.1" fill="#FBE3EC" transform="rotate(355.23817467123075 436.9 68.4)"/><circle cx="436.9" cy="68.4" r="2.3" fill="#FFD84D"/><ellipse cx="262.3" cy="61.4" rx="4.4" ry="7.5" fill="#F2AECB" transform="rotate(63.959521584385264 262.3 68.9)"/><ellipse cx="262.3" cy="61.4" rx="4.4" ry="7.5" fill="#F2AECB" transform="rotate(135.95952158438527 262.3 68.9)"/><ellipse cx="262.3" cy="61.4" rx="4.4" ry="7.5" fill="#F2AECB" transform="rotate(207.95952158438527 262.3 68.9)"/><ellipse cx="262.3" cy="61.4" rx="4.4" ry="7.5" fill="#F2AECB" transform="rotate(279.95952158438524 262.3 68.9)"/><ellipse cx="262.3" cy="61.4" rx="4.4" ry="7.5" fill="#F2AECB" transform="rotate(351.95952158438524 262.3 68.9)"/><circle cx="262.3" cy="68.9" r="1.9" fill="#FFD84D"/><ellipse cx="441.4" cy="56.9" rx="5.3" ry="9.1" fill="#E896B8" transform="rotate(18.018654767207003 441.4 66.0)"/><ellipse cx="441.4" cy="56.9" rx="5.3" ry="9.1" fill="#E896B8" transform="rotate(90.01865476720701 441.4 66.0)"/><ellipse cx="441.4" cy="56.9" rx="5.3" ry="9.1" fill="#E896B8" transform="rotate(162.018654767207 441.4 66.0)"/><ellipse cx="441.4" cy="56.9" rx="5.3" ry="9.1" fill="#E896B8" transform="rotate(234.018654767207 441.4 66.0)"/><ellipse cx="441.4" cy="56.9" rx="5.3" ry="9.1" fill="#E896B8" transform="rotate(306.018654767207 441.4 66.0)"/><circle cx="441.4" cy="66.0" r="2.4" fill="#FFD84D"/><ellipse cx="285.7" cy="45.5" rx="5.4" ry="9.3" fill="#F2AECB" transform="rotate(32.15214460179621 285.7 54.8)"/><ellipse cx="285.7" cy="45.5" rx="5.4" ry="9.3" fill="#F2AECB" transform="rotate(104.15214460179621 285.7 54.8)"/><ellipse cx="285.7" cy="45.5" rx="5.4" ry="9.3" fill="#F2AECB" transform="rotate(176.1521446017962 285.7 54.8)"/><ellipse cx="285.7" cy="45.5" rx="5.4" ry="9.3" fill="#F2AECB" transform="rotate(248.1521446017962 285.7 54.8)"/><ellipse cx="285.7" cy="45.5" rx="5.4" ry="9.3" fill="#F2AECB" transform="rotate(320.1521446017962 285.7 54.8)"/><circle cx="285.7" cy="54.8" r="2.4" fill="#FFD84D"/><ellipse cx="218.2" cy="56.2" rx="4.9" ry="8.5" fill="#F2AECB" transform="rotate(56.76123183716848 218.2 64.7)"/><ellipse cx="218.2" cy="56.2" rx="4.9" ry="8.5" fill="#F2AECB" transform="rotate(128.76123183716848 218.2 64.7)"/><ellipse cx="218.2" cy="56.2" rx="4.9" ry="8.5" fill="#F2AECB" transform="rotate(200.76123183716848 218.2 64.7)"/><ellipse cx="218.2" cy="56.2" rx="4.9" ry="8.5" fill="#F2AECB" transform="rotate(272.76123183716845 218.2 64.7)"/><ellipse cx="218.2" cy="56.2" rx="4.9" ry="8.5" fill="#F2AECB" transform="rotate(344.76123183716845 218.2 64.7)"/><circle cx="218.2" cy="64.7" r="2.2" fill="#FFD84D"/><ellipse cx="403.9" cy="48.0" rx="5.6" ry="9.7" fill="#E896B8" transform="rotate(58.36158700383693 403.9 57.7)"/><ellipse cx="403.9" cy="48.0" rx="5.6" ry="9.7" fill="#E896B8" transform="rotate(130.36158700383692 403.9 57.7)"/><ellipse cx="403.9" cy="48.0" rx="5.6" ry="9.7" fill="#E896B8" transform="rotate(202.36158700383692 403.9 57.7)"/><ellipse cx="403.9" cy="48.0" rx="5.6" ry="9.7" fill="#E896B8" transform="rotate(274.3615870038369 403.9 57.7)"/><ellipse cx="403.9" cy="48.0" rx="5.6" ry="9.7" fill="#E896B8" transform="rotate(346.3615870038369 403.9 57.7)"/><circle cx="403.9" cy="57.7" r="2.5" fill="#FFD84D"/><ellipse cx="410.3" cy="39.1" rx="4.9" ry="8.5" fill="#F2AECB" transform="rotate(10.830819882502041 410.3 47.6)"/><ellipse cx="410.3" cy="39.1" rx="4.9" ry="8.5" fill="#F2AECB" transform="rotate(82.83081988250204 410.3 47.6)"/><ellipse cx="410.3" cy="39.1" rx="4.9" ry="8.5" fill="#F2AECB" transform="rotate(154.83081988250206 410.3 47.6)"/><ellipse cx="410.3" cy="39.1" rx="4.9" ry="8.5" fill="#F2AECB" transform="rotate(226.83081988250206 410.3 47.6)"/><ellipse cx="410.3" cy="39.1" rx="4.9" ry="8.5" fill="#F2AECB" transform="rotate(298.83081988250206 410.3 47.6)"/><circle cx="410.3" cy="47.6" r="2.2" fill="#FFD84D"/><ellipse cx="214.0" cy="120.9" rx="5.0" ry="8.6" fill="#FBE3EC" transform="rotate(3.4809103812178757 214.0 129.6)"/><ellipse cx="214.0" cy="120.9" rx="5.0" ry="8.6" fill="#FBE3EC" transform="rotate(75.48091038121788 214.0 129.6)"/><ellipse cx="214.0" cy="120.9" rx="5.0" ry="8.6" fill="#FBE3EC" transform="rotate(147.48091038121788 214.0 129.6)"/><ellipse cx="214.0" cy="120.9" rx="5.0" ry="8.6" fill="#FBE3EC" transform="rotate(219.48091038121788 214.0 129.6)"/><ellipse cx="214.0" cy="120.9" rx="5.0" ry="8.6" fill="#FBE3EC" transform="rotate(291.4809103812179 214.0 129.6)"/><circle cx="214.0" cy="129.6" r="2.2" fill="#FFD84D"/><ellipse cx="210.4" cy="121.5" rx="5.4" ry="9.4" fill="#E896B8" transform="rotate(44.13376437555534 210.4 130.9)"/><ellipse cx="210.4" cy="121.5" rx="5.4" ry="9.4" fill="#E896B8" transform="rotate(116.13376437555533 210.4 130.9)"/><ellipse cx="210.4" cy="121.5" rx="5.4" ry="9.4" fill="#E896B8" transform="rotate(188.13376437555533 210.4 130.9)"/><ellipse cx="210.4" cy="121.5" rx="5.4" ry="9.4" fill="#E896B8" transform="rotate(260.13376437555536 210.4 130.9)"/><ellipse cx="210.4" cy="121.5" rx="5.4" ry="9.4" fill="#E896B8" transform="rotate(332.13376437555536 210.4 130.9)"/><circle cx="210.4" cy="130.9" r="2.4" fill="#FFD84D"/><ellipse cx="437.6" cy="116.5" rx="5.6" ry="9.6" fill="#F2AECB" transform="rotate(17.178850582252124 437.6 126.1)"/><ellipse cx="437.6" cy="116.5" rx="5.6" ry="9.6" fill="#F2AECB" transform="rotate(89.17885058225212 437.6 126.1)"/><ellipse cx="437.6" cy="116.5" rx="5.6" ry="9.6" fill="#F2AECB" transform="rotate(161.17885058225212 437.6 126.1)"/><ellipse cx="437.6" cy="116.5" rx="5.6" ry="9.6" fill="#F2AECB" transform="rotate(233.17885058225212 437.6 126.1)"/><ellipse cx="437.6" cy="116.5" rx="5.6" ry="9.6" fill="#F2AECB" transform="rotate(305.17885058225215 437.6 126.1)"/><circle cx="437.6" cy="126.1" r="2.5" fill="#FFD84D"/><ellipse cx="427.4" cy="118.2" rx="4.4" ry="7.5" fill="#F2AECB" transform="rotate(21.16663109358703 427.4 125.8)"/><ellipse cx="427.4" cy="118.2" rx="4.4" ry="7.5" fill="#F2AECB" transform="rotate(93.16663109358703 427.4 125.8)"/><ellipse cx="427.4" cy="118.2" rx="4.4" ry="7.5" fill="#F2AECB" transform="rotate(165.16663109358703 427.4 125.8)"/><ellipse cx="427.4" cy="118.2" rx="4.4" ry="7.5" fill="#F2AECB" transform="rotate(237.16663109358703 427.4 125.8)"/><ellipse cx="427.4" cy="118.2" rx="4.4" ry="7.5" fill="#F2AECB" transform="rotate(309.16663109358706 427.4 125.8)"/><circle cx="427.4" cy="125.8" r="1.9" fill="#FFD84D"/><ellipse cx="254.7" cy="111.7" rx="4.4" ry="7.7" fill="#E896B8" transform="rotate(66.73893034644635 254.7 119.3)"/><ellipse cx="254.7" cy="111.7" rx="4.4" ry="7.7" fill="#E896B8" transform="rotate(138.73893034644635 254.7 119.3)"/><ellipse cx="254.7" cy="111.7" rx="4.4" ry="7.7" fill="#E896B8" transform="rotate(210.73893034644635 254.7 119.3)"/><ellipse cx="254.7" cy="111.7" rx="4.4" ry="7.7" fill="#E896B8" transform="rotate(282.73893034644635 254.7 119.3)"/><ellipse cx="254.7" cy="111.7" rx="4.4" ry="7.7" fill="#E896B8" transform="rotate(354.73893034644635 254.7 119.3)"/><circle cx="254.7" cy="119.3" r="2.0" fill="#FFD84D"/><ellipse cx="382.0" cy="104.0" rx="5.4" ry="9.2" fill="#F2AECB" transform="rotate(2.6433664526275793 382.0 113.3)"/><ellipse cx="382.0" cy="104.0" rx="5.4" ry="9.2" fill="#F2AECB" transform="rotate(74.64336645262757 382.0 113.3)"/><ellipse cx="382.0" cy="104.0" rx="5.4" ry="9.2" fill="#F2AECB" transform="rotate(146.6433664526276 382.0 113.3)"/><ellipse cx="382.0" cy="104.0" rx="5.4" ry="9.2" fill="#F2AECB" transform="rotate(218.6433664526276 382.0 113.3)"/><ellipse cx="382.0" cy="104.0" rx="5.4" ry="9.2" fill="#F2AECB" transform="rotate(290.64336645262756 382.0 113.3)"/><circle cx="382.0" cy="113.3" r="2.4" fill="#FFD84D"/><ellipse cx="390.6" cy="108.6" rx="5.0" ry="8.6" fill="#F2AECB" transform="rotate(22.366094156992556 390.6 117.2)"/><ellipse cx="390.6" cy="108.6" rx="5.0" ry="8.6" fill="#F2AECB" transform="rotate(94.36609415699256 390.6 117.2)"/><ellipse cx="390.6" cy="108.6" rx="5.0" ry="8.6" fill="#F2AECB" transform="rotate(166.36609415699255 390.6 117.2)"/><ellipse cx="390.6" cy="108.6" rx="5.0" ry="8.6" fill="#F2AECB" transform="rotate(238.36609415699255 390.6 117.2)"/><ellipse cx="390.6" cy="108.6" rx="5.0" ry="8.6" fill="#F2AECB" transform="rotate(310.3660941569926 390.6 117.2)"/><circle cx="390.6" cy="117.2" r="2.2" fill="#FFD84D"/><ellipse cx="254.3" cy="110.0" rx="5.0" ry="8.7" fill="#FBE3EC" transform="rotate(22.07492289725644 254.3 118.7)"/><ellipse cx="254.3" cy="110.0" rx="5.0" ry="8.7" fill="#FBE3EC" transform="rotate(94.07492289725644 254.3 118.7)"/><ellipse cx="254.3" cy="110.0" rx="5.0" ry="8.7" fill="#FBE3EC" transform="rotate(166.07492289725644 254.3 118.7)"/><ellipse cx="254.3" cy="110.0" rx="5.0" ry="8.7" fill="#FBE3EC" transform="rotate(238.07492289725644 254.3 118.7)"/><ellipse cx="254.3" cy="110.0" rx="5.0" ry="8.7" fill="#FBE3EC" transform="rotate(310.07492289725644 254.3 118.7)"/><circle cx="254.3" cy="118.7" r="2.2" fill="#FFD84D"/><ellipse cx="350.5" cy="102.3" rx="4.9" ry="8.4" fill="#F2AECB" transform="rotate(53.014327470612834 350.5 110.7)"/><ellipse cx="350.5" cy="102.3" rx="4.9" ry="8.4" fill="#F2AECB" transform="rotate(125.01432747061284 350.5 110.7)"/><ellipse cx="350.5" cy="102.3" rx="4.9" ry="8.4" fill="#F2AECB" transform="rotate(197.01432747061284 350.5 110.7)"/><ellipse cx="350.5" cy="102.3" rx="4.9" ry="8.4" fill="#F2AECB" transform="rotate(269.01432747061284 350.5 110.7)"/><ellipse cx="350.5" cy="102.3" rx="4.9" ry="8.4" fill="#F2AECB" transform="rotate(341.01432747061284 350.5 110.7)"/><circle cx="350.5" cy="110.7" r="2.2" fill="#FFD84D"/><ellipse cx="301.8" cy="108.8" rx="5.1" ry="8.8" fill="#F2AECB" transform="rotate(51.76704026534675 301.8 117.6)"/><ellipse cx="301.8" cy="108.8" rx="5.1" ry="8.8" fill="#F2AECB" transform="rotate(123.76704026534675 301.8 117.6)"/><ellipse cx="301.8" cy="108.8" rx="5.1" ry="8.8" fill="#F2AECB" transform="rotate(195.76704026534674 301.8 117.6)"/><ellipse cx="301.8" cy="108.8" rx="5.1" ry="8.8" fill="#F2AECB" transform="rotate(267.76704026534674 301.8 117.6)"/><ellipse cx="301.8" cy="108.8" rx="5.1" ry="8.8" fill="#F2AECB" transform="rotate(339.76704026534674 301.8 117.6)"/><circle cx="301.8" cy="117.6" r="2.3" fill="#FFD84D"/><ellipse cx="223.1" cy="103.9" rx="5.0" ry="8.6" fill="#E896B8" transform="rotate(39.68201975774717 223.1 112.5)"/><ellipse cx="223.1" cy="103.9" rx="5.0" ry="8.6" fill="#E896B8" transform="rotate(111.68201975774717 223.1 112.5)"/><ellipse cx="223.1" cy="103.9" rx="5.0" ry="8.6" fill="#E896B8" transform="rotate(183.68201975774718 223.1 112.5)"/><ellipse cx="223.1" cy="103.9" rx="5.0" ry="8.6" fill="#E896B8" transform="rotate(255.68201975774718 223.1 112.5)"/><ellipse cx="223.1" cy="103.9" rx="5.0" ry="8.6" fill="#E896B8" transform="rotate(327.6820197577472 223.1 112.5)"/><circle cx="223.1" cy="112.5" r="2.2" fill="#FFD84D"/><ellipse cx="366.1" cy="98.2" rx="6.1" ry="10.5" fill="#F2AECB" transform="rotate(52.83576821182516 366.1 108.7)"/><ellipse cx="366.1" cy="98.2" rx="6.1" ry="10.5" fill="#F2AECB" transform="rotate(124.83576821182515 366.1 108.7)"/><ellipse cx="366.1" cy="98.2" rx="6.1" ry="10.5" fill="#F2AECB" transform="rotate(196.83576821182515 366.1 108.7)"/><ellipse cx="366.1" cy="98.2" rx="6.1" ry="10.5" fill="#F2AECB" transform="rotate(268.83576821182515 366.1 108.7)"/><ellipse cx="366.1" cy="98.2" rx="6.1" ry="10.5" fill="#F2AECB" transform="rotate(340.83576821182515 366.1 108.7)"/><circle cx="366.1" cy="108.7" r="2.7" fill="#FFD84D"/><ellipse cx="290.5" cy="102.9" rx="5.3" ry="9.1" fill="#F2AECB" transform="rotate(2.5548100762354924 290.5 112.0)"/><ellipse cx="290.5" cy="102.9" rx="5.3" ry="9.1" fill="#F2AECB" transform="rotate(74.5548100762355 290.5 112.0)"/><ellipse cx="290.5" cy="102.9" rx="5.3" ry="9.1" fill="#F2AECB" transform="rotate(146.5548100762355 290.5 112.0)"/><ellipse cx="290.5" cy="102.9" rx="5.3" ry="9.1" fill="#F2AECB" transform="rotate(218.5548100762355 290.5 112.0)"/><ellipse cx="290.5" cy="102.9" rx="5.3" ry="9.1" fill="#F2AECB" transform="rotate(290.55481007623547 290.5 112.0)"/><circle cx="290.5" cy="112.0" r="2.3" fill="#FFD84D"/><ellipse cx="317.7" cy="93.9" rx="5.2" ry="8.9" fill="#E896B8" transform="rotate(14.061721621075533 317.7 102.8)"/><ellipse cx="317.7" cy="93.9" rx="5.2" ry="8.9" fill="#E896B8" transform="rotate(86.06172162107553 317.7 102.8)"/><ellipse cx="317.7" cy="93.9" rx="5.2" ry="8.9" fill="#E896B8" transform="rotate(158.06172162107552 317.7 102.8)"/><ellipse cx="317.7" cy="93.9" rx="5.2" ry="8.9" fill="#E896B8" transform="rotate(230.06172162107552 317.7 102.8)"/><ellipse cx="317.7" cy="93.9" rx="5.2" ry="8.9" fill="#E896B8" transform="rotate(302.06172162107555 317.7 102.8)"/><circle cx="317.7" cy="102.8" r="2.3" fill="#FFD84D"/><ellipse cx="294.5" cy="93.5" rx="4.7" ry="8.1" fill="#FBE3EC" transform="rotate(54.67883799511605 294.5 101.6)"/><ellipse cx="294.5" cy="93.5" rx="4.7" ry="8.1" fill="#FBE3EC" transform="rotate(126.67883799511606 294.5 101.6)"/><ellipse cx="294.5" cy="93.5" rx="4.7" ry="8.1" fill="#FBE3EC" transform="rotate(198.67883799511606 294.5 101.6)"/><ellipse cx="294.5" cy="93.5" rx="4.7" ry="8.1" fill="#FBE3EC" transform="rotate(270.67883799511606 294.5 101.6)"/><ellipse cx="294.5" cy="93.5" rx="4.7" ry="8.1" fill="#FBE3EC" transform="rotate(342.67883799511606 294.5 101.6)"/><circle cx="294.5" cy="101.6" r="2.1" fill="#FFD84D"/><ellipse cx="325.9" cy="97.3" rx="4.6" ry="7.9" fill="#F2AECB" transform="rotate(8.237248133211654 325.9 105.2)"/><ellipse cx="325.9" cy="97.3" rx="4.6" ry="7.9" fill="#F2AECB" transform="rotate(80.23724813321165 325.9 105.2)"/><ellipse cx="325.9" cy="97.3" rx="4.6" ry="7.9" fill="#F2AECB" transform="rotate(152.23724813321166 325.9 105.2)"/><ellipse cx="325.9" cy="97.3" rx="4.6" ry="7.9" fill="#F2AECB" transform="rotate(224.23724813321166 325.9 105.2)"/><ellipse cx="325.9" cy="97.3" rx="4.6" ry="7.9" fill="#F2AECB" transform="rotate(296.23724813321166 325.9 105.2)"/><circle cx="325.9" cy="105.2" r="2.0" fill="#FFD84D"/><ellipse cx="348.8" cy="96.5" rx="5.0" ry="8.6" fill="#E896B8" transform="rotate(52.82320886008871 348.8 105.2)"/><ellipse cx="348.8" cy="96.5" rx="5.0" ry="8.6" fill="#E896B8" transform="rotate(124.82320886008871 348.8 105.2)"/><ellipse cx="348.8" cy="96.5" rx="5.0" ry="8.6" fill="#E896B8" transform="rotate(196.8232088600887 348.8 105.2)"/><ellipse cx="348.8" cy="96.5" rx="5.0" ry="8.6" fill="#E896B8" transform="rotate(268.8232088600887 348.8 105.2)"/><ellipse cx="348.8" cy="96.5" rx="5.0" ry="8.6" fill="#E896B8" transform="rotate(340.8232088600887 348.8 105.2)"/><circle cx="348.8" cy="105.2" r="2.2" fill="#FFD84D"/><ellipse cx="278.1" cy="91.4" rx="5.5" ry="9.5" fill="#F2AECB" transform="rotate(10.86417824469974 278.1 100.9)"/><ellipse cx="278.1" cy="91.4" rx="5.5" ry="9.5" fill="#F2AECB" transform="rotate(82.86417824469974 278.1 100.9)"/><ellipse cx="278.1" cy="91.4" rx="5.5" ry="9.5" fill="#F2AECB" transform="rotate(154.86417824469973 278.1 100.9)"/><ellipse cx="278.1" cy="91.4" rx="5.5" ry="9.5" fill="#F2AECB" transform="rotate(226.86417824469973 278.1 100.9)"/><ellipse cx="278.1" cy="91.4" rx="5.5" ry="9.5" fill="#F2AECB" transform="rotate(298.86417824469976 278.1 100.9)"/><circle cx="278.1" cy="100.9" r="2.5" fill="#FFD84D"/><ellipse cx="275.2" cy="92.1" rx="5.8" ry="10.0" fill="#F2AECB" transform="rotate(48.57838957700414 275.2 102.1)"/><ellipse cx="275.2" cy="92.1" rx="5.8" ry="10.0" fill="#F2AECB" transform="rotate(120.57838957700415 275.2 102.1)"/><ellipse cx="275.2" cy="92.1" rx="5.8" ry="10.0" fill="#F2AECB" transform="rotate(192.57838957700415 275.2 102.1)"/><ellipse cx="275.2" cy="92.1" rx="5.8" ry="10.0" fill="#F2AECB" transform="rotate(264.57838957700415 275.2 102.1)"/><ellipse cx="275.2" cy="92.1" rx="5.8" ry="10.0" fill="#F2AECB" transform="rotate(336.57838957700415 275.2 102.1)"/><circle cx="275.2" cy="102.1" r="2.6" fill="#FFD84D"/><ellipse cx="396.3" cy="97.5" rx="4.6" ry="7.9" fill="#E896B8" transform="rotate(27.506499985856028 396.3 105.4)"/><ellipse cx="396.3" cy="97.5" rx="4.6" ry="7.9" fill="#E896B8" transform="rotate(99.50649998585602 396.3 105.4)"/><ellipse cx="396.3" cy="97.5" rx="4.6" ry="7.9" fill="#E896B8" transform="rotate(171.50649998585604 396.3 105.4)"/><ellipse cx="396.3" cy="97.5" rx="4.6" ry="7.9" fill="#E896B8" transform="rotate(243.50649998585604 396.3 105.4)"/><ellipse cx="396.3" cy="97.5" rx="4.6" ry="7.9" fill="#E896B8" transform="rotate(315.506499985856 396.3 105.4)"/><circle cx="396.3" cy="105.4" r="2.0" fill="#FFD84D"/><ellipse cx="300.9" cy="95.8" rx="4.7" ry="8.2" fill="#F2AECB" transform="rotate(37.71863099284363 300.9 104.0)"/><ellipse cx="300.9" cy="95.8" rx="4.7" ry="8.2" fill="#F2AECB" transform="rotate(109.71863099284363 300.9 104.0)"/><ellipse cx="300.9" cy="95.8" rx="4.7" ry="8.2" fill="#F2AECB" transform="rotate(181.71863099284363 300.9 104.0)"/><ellipse cx="300.9" cy="95.8" rx="4.7" ry="8.2" fill="#F2AECB" transform="rotate(253.71863099284363 300.9 104.0)"/><ellipse cx="300.9" cy="95.8" rx="4.7" ry="8.2" fill="#F2AECB" transform="rotate(325.7186309928436 300.9 104.0)"/><circle cx="300.9" cy="104.0" r="2.1" fill="#FFD84D"/><ellipse cx="339.0" cy="97.2" rx="4.8" ry="8.3" fill="#FBE3EC" transform="rotate(12.104725950596643 339.0 105.5)"/><ellipse cx="339.0" cy="97.2" rx="4.8" ry="8.3" fill="#FBE3EC" transform="rotate(84.10472595059665 339.0 105.5)"/><ellipse cx="339.0" cy="97.2" rx="4.8" ry="8.3" fill="#FBE3EC" transform="rotate(156.10472595059665 339.0 105.5)"/><ellipse cx="339.0" cy="97.2" rx="4.8" ry="8.3" fill="#FBE3EC" transform="rotate(228.10472595059665 339.0 105.5)"/><ellipse cx="339.0" cy="97.2" rx="4.8" ry="8.3" fill="#FBE3EC" transform="rotate(300.1047259505966 339.0 105.5)"/><circle cx="339.0" cy="105.5" r="2.1" fill="#FFD84D"/><ellipse cx="230.0" cy="90.2" rx="5.6" ry="9.6" fill="#E896B8" transform="rotate(63.39114801857504 230.0 99.7)"/><ellipse cx="230.0" cy="90.2" rx="5.6" ry="9.6" fill="#E896B8" transform="rotate(135.39114801857505 230.0 99.7)"/><ellipse cx="230.0" cy="90.2" rx="5.6" ry="9.6" fill="#E896B8" transform="rotate(207.39114801857505 230.0 99.7)"/><ellipse cx="230.0" cy="90.2" rx="5.6" ry="9.6" fill="#E896B8" transform="rotate(279.39114801857505 230.0 99.7)"/><ellipse cx="230.0" cy="90.2" rx="5.6" ry="9.6" fill="#E896B8" transform="rotate(351.39114801857505 230.0 99.7)"/><circle cx="230.0" cy="99.7" r="2.5" fill="#FFD84D"/><ellipse cx="317.6" cy="93.5" rx="5.3" ry="9.2" fill="#F2AECB" transform="rotate(25.931899224284955 317.6 102.7)"/><ellipse cx="317.6" cy="93.5" rx="5.3" ry="9.2" fill="#F2AECB" transform="rotate(97.93189922428496 317.6 102.7)"/><ellipse cx="317.6" cy="93.5" rx="5.3" ry="9.2" fill="#F2AECB" transform="rotate(169.93189922428496 317.6 102.7)"/><ellipse cx="317.6" cy="93.5" rx="5.3" ry="9.2" fill="#F2AECB" transform="rotate(241.93189922428496 317.6 102.7)"/><ellipse cx="317.6" cy="93.5" rx="5.3" ry="9.2" fill="#F2AECB" transform="rotate(313.93189922428496 317.6 102.7)"/><circle cx="317.6" cy="102.7" r="2.4" fill="#FFD84D"/><ellipse cx="311.4" cy="85.0" rx="4.5" ry="7.7" fill="#F2AECB" transform="rotate(2.5106065856617406 311.4 92.7)"/><ellipse cx="311.4" cy="85.0" rx="4.5" ry="7.7" fill="#F2AECB" transform="rotate(74.51060658566175 311.4 92.7)"/><ellipse cx="311.4" cy="85.0" rx="4.5" ry="7.7" fill="#F2AECB" transform="rotate(146.51060658566175 311.4 92.7)"/><ellipse cx="311.4" cy="85.0" rx="4.5" ry="7.7" fill="#F2AECB" transform="rotate(218.51060658566175 311.4 92.7)"/><ellipse cx="311.4" cy="85.0" rx="4.5" ry="7.7" fill="#F2AECB" transform="rotate(290.5106065856617 311.4 92.7)"/><circle cx="311.4" cy="92.7" r="2.0" fill="#FFD84D"/><ellipse cx="350.2" cy="85.1" rx="6.1" ry="10.4" fill="#E896B8" transform="rotate(25.546427933081223 350.2 95.6)"/><ellipse cx="350.2" cy="85.1" rx="6.1" ry="10.4" fill="#E896B8" transform="rotate(97.54642793308122 350.2 95.6)"/><ellipse cx="350.2" cy="85.1" rx="6.1" ry="10.4" fill="#E896B8" transform="rotate(169.54642793308122 350.2 95.6)"/><ellipse cx="350.2" cy="85.1" rx="6.1" ry="10.4" fill="#E896B8" transform="rotate(241.54642793308122 350.2 95.6)"/><ellipse cx="350.2" cy="85.1" rx="6.1" ry="10.4" fill="#E896B8" transform="rotate(313.54642793308125 350.2 95.6)"/><circle cx="350.2" cy="95.6" r="2.7" fill="#FFD84D"/><ellipse cx="280.0" cy="83.9" rx="5.2" ry="9.0" fill="#F2AECB" transform="rotate(49.43754792584417 280.0 92.8)"/><ellipse cx="280.0" cy="83.9" rx="5.2" ry="9.0" fill="#F2AECB" transform="rotate(121.43754792584417 280.0 92.8)"/><ellipse cx="280.0" cy="83.9" rx="5.2" ry="9.0" fill="#F2AECB" transform="rotate(193.43754792584417 280.0 92.8)"/><ellipse cx="280.0" cy="83.9" rx="5.2" ry="9.0" fill="#F2AECB" transform="rotate(265.43754792584417 280.0 92.8)"/><ellipse cx="280.0" cy="83.9" rx="5.2" ry="9.0" fill="#F2AECB" transform="rotate(337.43754792584417 280.0 92.8)"/><circle cx="280.0" cy="92.8" r="2.3" fill="#FFD84D"/><ellipse cx="407.6" cy="79.9" rx="5.1" ry="8.7" fill="#F2AECB" transform="rotate(34.42405865008722 407.6 88.7)"/><ellipse cx="407.6" cy="79.9" rx="5.1" ry="8.7" fill="#F2AECB" transform="rotate(106.42405865008722 407.6 88.7)"/><ellipse cx="407.6" cy="79.9" rx="5.1" ry="8.7" fill="#F2AECB" transform="rotate(178.4240586500872 407.6 88.7)"/><ellipse cx="407.6" cy="79.9" rx="5.1" ry="8.7" fill="#F2AECB" transform="rotate(250.4240586500872 407.6 88.7)"/><ellipse cx="407.6" cy="79.9" rx="5.1" ry="8.7" fill="#F2AECB" transform="rotate(322.4240586500872 407.6 88.7)"/><circle cx="407.6" cy="88.7" r="2.3" fill="#FFD84D"/><ellipse cx="277.9" cy="147.4" rx="4.8" ry="8.3" fill="#FBE3EC" transform="rotate(30.0571943115555 277.9 155.8)"/><ellipse cx="277.9" cy="147.4" rx="4.8" ry="8.3" fill="#FBE3EC" transform="rotate(102.05719431155549 277.9 155.8)"/><ellipse cx="277.9" cy="147.4" rx="4.8" ry="8.3" fill="#FBE3EC" transform="rotate(174.0571943115555 277.9 155.8)"/><ellipse cx="277.9" cy="147.4" rx="4.8" ry="8.3" fill="#FBE3EC" transform="rotate(246.0571943115555 277.9 155.8)"/><ellipse cx="277.9" cy="147.4" rx="4.8" ry="8.3" fill="#FBE3EC" transform="rotate(318.0571943115555 277.9 155.8)"/><circle cx="277.9" cy="155.8" r="2.2" fill="#FFD84D"/><ellipse cx="298.7" cy="133.1" rx="5.0" ry="8.6" fill="#F2AECB" transform="rotate(31.45440426845979 298.7 141.8)"/><ellipse cx="298.7" cy="133.1" rx="5.0" ry="8.6" fill="#F2AECB" transform="rotate(103.4544042684598 298.7 141.8)"/><ellipse cx="298.7" cy="133.1" rx="5.0" ry="8.6" fill="#F2AECB" transform="rotate(175.4544042684598 298.7 141.8)"/><ellipse cx="298.7" cy="133.1" rx="5.0" ry="8.6" fill="#F2AECB" transform="rotate(247.4544042684598 298.7 141.8)"/><ellipse cx="298.7" cy="133.1" rx="5.0" ry="8.6" fill="#F2AECB" transform="rotate(319.45440426845977 298.7 141.8)"/><circle cx="298.7" cy="141.8" r="2.2" fill="#FFD84D"/><ellipse cx="260.1" cy="132.1" rx="4.6" ry="7.9" fill="#F2AECB" transform="rotate(2.7116534587272234 260.1 140.0)"/><ellipse cx="260.1" cy="132.1" rx="4.6" ry="7.9" fill="#F2AECB" transform="rotate(74.71165345872723 260.1 140.0)"/><ellipse cx="260.1" cy="132.1" rx="4.6" ry="7.9" fill="#F2AECB" transform="rotate(146.71165345872723 260.1 140.0)"/><ellipse cx="260.1" cy="132.1" rx="4.6" ry="7.9" fill="#F2AECB" transform="rotate(218.71165345872723 260.1 140.0)"/><ellipse cx="260.1" cy="132.1" rx="4.6" ry="7.9" fill="#F2AECB" transform="rotate(290.7116534587272 260.1 140.0)"/><circle cx="260.1" cy="140.0" r="2.0" fill="#FFD84D"/><ellipse cx="361.6" cy="137.6" rx="5.0" ry="8.6" fill="#E896B8" transform="rotate(8.162752824379421 361.6 146.2)"/><ellipse cx="361.6" cy="137.6" rx="5.0" ry="8.6" fill="#E896B8" transform="rotate(80.16275282437942 361.6 146.2)"/><ellipse cx="361.6" cy="137.6" rx="5.0" ry="8.6" fill="#E896B8" transform="rotate(152.16275282437942 361.6 146.2)"/><ellipse cx="361.6" cy="137.6" rx="5.0" ry="8.6" fill="#E896B8" transform="rotate(224.16275282437942 361.6 146.2)"/><ellipse cx="361.6" cy="137.6" rx="5.0" ry="8.6" fill="#E896B8" transform="rotate(296.1627528243794 361.6 146.2)"/><circle cx="361.6" cy="146.2" r="2.2" fill="#FFD84D"/><ellipse cx="312.5" cy="136.0" rx="4.8" ry="8.3" fill="#F2AECB" transform="rotate(27.050480923019776 312.5 144.4)"/><ellipse cx="312.5" cy="136.0" rx="4.8" ry="8.3" fill="#F2AECB" transform="rotate(99.05048092301978 312.5 144.4)"/><ellipse cx="312.5" cy="136.0" rx="4.8" ry="8.3" fill="#F2AECB" transform="rotate(171.0504809230198 312.5 144.4)"/><ellipse cx="312.5" cy="136.0" rx="4.8" ry="8.3" fill="#F2AECB" transform="rotate(243.0504809230198 312.5 144.4)"/><ellipse cx="312.5" cy="136.0" rx="4.8" ry="8.3" fill="#F2AECB" transform="rotate(315.0504809230198 312.5 144.4)"/><circle cx="312.5" cy="144.4" r="2.1" fill="#FFD84D"/><ellipse cx="310.4" cy="130.3" rx="5.2" ry="9.0" fill="#F2AECB" transform="rotate(66.20917003723389 310.4 139.3)"/><ellipse cx="310.4" cy="130.3" rx="5.2" ry="9.0" fill="#F2AECB" transform="rotate(138.2091700372339 310.4 139.3)"/><ellipse cx="310.4" cy="130.3" rx="5.2" ry="9.0" fill="#F2AECB" transform="rotate(210.2091700372339 310.4 139.3)"/><ellipse cx="310.4" cy="130.3" rx="5.2" ry="9.0" fill="#F2AECB" transform="rotate(282.2091700372339 310.4 139.3)"/><ellipse cx="310.4" cy="130.3" rx="5.2" ry="9.0" fill="#F2AECB" transform="rotate(354.2091700372339 310.4 139.3)"/><circle cx="310.4" cy="139.3" r="2.3" fill="#FFD84D"/><ellipse cx="345.7" cy="126.2" rx="5.1" ry="8.8" fill="#E896B8" transform="rotate(41.23854153105066 345.7 135.0)"/><ellipse cx="345.7" cy="126.2" rx="5.1" ry="8.8" fill="#E896B8" transform="rotate(113.23854153105066 345.7 135.0)"/><ellipse cx="345.7" cy="126.2" rx="5.1" ry="8.8" fill="#E896B8" transform="rotate(185.23854153105066 345.7 135.0)"/><ellipse cx="345.7" cy="126.2" rx="5.1" ry="8.8" fill="#E896B8" transform="rotate(257.23854153105066 345.7 135.0)"/><ellipse cx="345.7" cy="126.2" rx="5.1" ry="8.8" fill="#E896B8" transform="rotate(329.23854153105066 345.7 135.0)"/><circle cx="345.7" cy="135.0" r="2.3" fill="#FFD84D"/><ellipse cx="332.1" cy="130.2" rx="4.9" ry="8.5" fill="#FBE3EC" transform="rotate(38.04755676023178 332.1 138.6)"/><ellipse cx="332.1" cy="130.2" rx="4.9" ry="8.5" fill="#FBE3EC" transform="rotate(110.04755676023177 332.1 138.6)"/><ellipse cx="332.1" cy="130.2" rx="4.9" ry="8.5" fill="#FBE3EC" transform="rotate(182.04755676023177 332.1 138.6)"/><ellipse cx="332.1" cy="130.2" rx="4.9" ry="8.5" fill="#FBE3EC" transform="rotate(254.04755676023177 332.1 138.6)"/><ellipse cx="332.1" cy="130.2" rx="4.9" ry="8.5" fill="#FBE3EC" transform="rotate(326.04755676023177 332.1 138.6)"/><circle cx="332.1" cy="138.6" r="2.2" fill="#FFD84D"/><ellipse cx="379.9" cy="132.5" rx="4.4" ry="7.6" fill="#F2AECB" transform="rotate(12.493615703665546 379.9 140.1)"/><ellipse cx="379.9" cy="132.5" rx="4.4" ry="7.6" fill="#F2AECB" transform="rotate(84.49361570366554 379.9 140.1)"/><ellipse cx="379.9" cy="132.5" rx="4.4" ry="7.6" fill="#F2AECB" transform="rotate(156.49361570366554 379.9 140.1)"/><ellipse cx="379.9" cy="132.5" rx="4.4" ry="7.6" fill="#F2AECB" transform="rotate(228.49361570366554 379.9 140.1)"/><ellipse cx="379.9" cy="132.5" rx="4.4" ry="7.6" fill="#F2AECB" transform="rotate(300.49361570366557 379.9 140.1)"/><circle cx="379.9" cy="140.1" r="2.0" fill="#FFD84D"/><ellipse cx="290.2" cy="122.8" rx="5.2" ry="8.9" fill="#E896B8" transform="rotate(55.00033601287683 290.2 131.7)"/><ellipse cx="290.2" cy="122.8" rx="5.2" ry="8.9" fill="#E896B8" transform="rotate(127.00033601287683 290.2 131.7)"/><ellipse cx="290.2" cy="122.8" rx="5.2" ry="8.9" fill="#E896B8" transform="rotate(199.00033601287683 290.2 131.7)"/><ellipse cx="290.2" cy="122.8" rx="5.2" ry="8.9" fill="#E896B8" transform="rotate(271.0003360128768 290.2 131.7)"/><ellipse cx="290.2" cy="122.8" rx="5.2" ry="8.9" fill="#E896B8" transform="rotate(343.0003360128768 290.2 131.7)"/><circle cx="290.2" cy="131.7" r="2.3" fill="#FFD84D"/><ellipse cx="500.2" cy="120.6" rx="4.9" ry="8.4" fill="#F2AECB" transform="rotate(52.8924147770063 500.2 129.1)"/><ellipse cx="500.2" cy="120.6" rx="4.9" ry="8.4" fill="#F2AECB" transform="rotate(124.89241477700631 500.2 129.1)"/><ellipse cx="500.2" cy="120.6" rx="4.9" ry="8.4" fill="#F2AECB" transform="rotate(196.8924147770063 500.2 129.1)"/><ellipse cx="500.2" cy="120.6" rx="4.9" ry="8.4" fill="#F2AECB" transform="rotate(268.8924147770063 500.2 129.1)"/><ellipse cx="500.2" cy="120.6" rx="4.9" ry="8.4" fill="#F2AECB" transform="rotate(340.8924147770063 500.2 129.1)"/><circle cx="500.2" cy="129.1" r="2.2" fill="#FFD84D"/><ellipse cx="134.4" cy="126.3" rx="4.6" ry="7.9" fill="#F2AECB" transform="rotate(35.399860690316444 134.4 134.2)"/><ellipse cx="134.4" cy="126.3" rx="4.6" ry="7.9" fill="#F2AECB" transform="rotate(107.39986069031644 134.4 134.2)"/><ellipse cx="134.4" cy="126.3" rx="4.6" ry="7.9" fill="#F2AECB" transform="rotate(179.39986069031644 134.4 134.2)"/><ellipse cx="134.4" cy="126.3" rx="4.6" ry="7.9" fill="#F2AECB" transform="rotate(251.39986069031644 134.4 134.2)"/><ellipse cx="134.4" cy="126.3" rx="4.6" ry="7.9" fill="#F2AECB" transform="rotate(323.3998606903165 134.4 134.2)"/><circle cx="134.4" cy="134.2" r="2.0" fill="#FFD84D"/><ellipse cx="347.1" cy="127.0" rx="5.8" ry="10.0" fill="#E896B8" transform="rotate(48.06828167696202 347.1 136.9)"/><ellipse cx="347.1" cy="127.0" rx="5.8" ry="10.0" fill="#E896B8" transform="rotate(120.06828167696202 347.1 136.9)"/><ellipse cx="347.1" cy="127.0" rx="5.8" ry="10.0" fill="#E896B8" transform="rotate(192.06828167696202 347.1 136.9)"/><ellipse cx="347.1" cy="127.0" rx="5.8" ry="10.0" fill="#E896B8" transform="rotate(264.06828167696204 347.1 136.9)"/><ellipse cx="347.1" cy="127.0" rx="5.8" ry="10.0" fill="#E896B8" transform="rotate(336.06828167696204 347.1 136.9)"/><circle cx="347.1" cy="136.9" r="2.6" fill="#FFD84D"/><ellipse cx="310.0" cy="118.7" rx="5.9" ry="10.1" fill="#F2AECB" transform="rotate(31.05520826114283 310.0 128.8)"/><ellipse cx="310.0" cy="118.7" rx="5.9" ry="10.1" fill="#F2AECB" transform="rotate(103.05520826114284 310.0 128.8)"/><ellipse cx="310.0" cy="118.7" rx="5.9" ry="10.1" fill="#F2AECB" transform="rotate(175.05520826114284 310.0 128.8)"/><ellipse cx="310.0" cy="118.7" rx="5.9" ry="10.1" fill="#F2AECB" transform="rotate(247.05520826114284 310.0 128.8)"/><ellipse cx="310.0" cy="118.7" rx="5.9" ry="10.1" fill="#F2AECB" transform="rotate(319.0552082611428 310.0 128.8)"/><circle cx="310.0" cy="128.8" r="2.6" fill="#FFD84D"/><ellipse cx="316.7" cy="120.0" rx="5.6" ry="9.6" fill="#FBE3EC" transform="rotate(68.20364220609869 316.7 129.5)"/><ellipse cx="316.7" cy="120.0" rx="5.6" ry="9.6" fill="#FBE3EC" transform="rotate(140.2036422060987 316.7 129.5)"/><ellipse cx="316.7" cy="120.0" rx="5.6" ry="9.6" fill="#FBE3EC" transform="rotate(212.2036422060987 316.7 129.5)"/><ellipse cx="316.7" cy="120.0" rx="5.6" ry="9.6" fill="#FBE3EC" transform="rotate(284.2036422060987 316.7 129.5)"/><ellipse cx="316.7" cy="120.0" rx="5.6" ry="9.6" fill="#FBE3EC" transform="rotate(356.2036422060987 316.7 129.5)"/><circle cx="316.7" cy="129.5" r="2.5" fill="#FFD84D"/><ellipse cx="335.5" cy="124.9" rx="4.5" ry="7.7" fill="#E896B8" transform="rotate(17.754938468419258 335.5 132.6)"/><ellipse cx="335.5" cy="124.9" rx="4.5" ry="7.7" fill="#E896B8" transform="rotate(89.75493846841925 335.5 132.6)"/><ellipse cx="335.5" cy="124.9" rx="4.5" ry="7.7" fill="#E896B8" transform="rotate(161.75493846841925 335.5 132.6)"/><ellipse cx="335.5" cy="124.9" rx="4.5" ry="7.7" fill="#E896B8" transform="rotate(233.75493846841925 335.5 132.6)"/><ellipse cx="335.5" cy="124.9" rx="4.5" ry="7.7" fill="#E896B8" transform="rotate(305.75493846841925 335.5 132.6)"/><circle cx="335.5" cy="132.6" r="2.0" fill="#FFD84D"/><ellipse cx="436.0" cy="105.9" rx="5.1" ry="8.8" fill="#F2AECB" transform="rotate(57.25276525510573 436.0 114.7)"/><ellipse cx="436.0" cy="105.9" rx="5.1" ry="8.8" fill="#F2AECB" transform="rotate(129.25276525510571 436.0 114.7)"/><ellipse cx="436.0" cy="105.9" rx="5.1" ry="8.8" fill="#F2AECB" transform="rotate(201.25276525510571 436.0 114.7)"/><ellipse cx="436.0" cy="105.9" rx="5.1" ry="8.8" fill="#F2AECB" transform="rotate(273.2527652551057 436.0 114.7)"/><ellipse cx="436.0" cy="105.9" rx="5.1" ry="8.8" fill="#F2AECB" transform="rotate(345.2527652551057 436.0 114.7)"/><circle cx="436.0" cy="114.7" r="2.3" fill="#FFD84D"/><ellipse cx="504.6" cy="111.5" rx="6.0" ry="10.3" fill="#F2AECB" transform="rotate(0.8716298186592724 504.6 121.8)"/><ellipse cx="504.6" cy="111.5" rx="6.0" ry="10.3" fill="#F2AECB" transform="rotate(72.87162981865927 504.6 121.8)"/><ellipse cx="504.6" cy="111.5" rx="6.0" ry="10.3" fill="#F2AECB" transform="rotate(144.87162981865927 504.6 121.8)"/><ellipse cx="504.6" cy="111.5" rx="6.0" ry="10.3" fill="#F2AECB" transform="rotate(216.87162981865927 504.6 121.8)"/><ellipse cx="504.6" cy="111.5" rx="6.0" ry="10.3" fill="#F2AECB" transform="rotate(288.87162981865924 504.6 121.8)"/><circle cx="504.6" cy="121.8" r="2.7" fill="#FFD84D"/><ellipse cx="145.4" cy="110.5" rx="5.2" ry="9.0" fill="#E896B8" transform="rotate(55.30096508376935 145.4 119.5)"/><ellipse cx="145.4" cy="110.5" rx="5.2" ry="9.0" fill="#E896B8" transform="rotate(127.30096508376934 145.4 119.5)"/><ellipse cx="145.4" cy="110.5" rx="5.2" ry="9.0" fill="#E896B8" transform="rotate(199.30096508376934 145.4 119.5)"/><ellipse cx="145.4" cy="110.5" rx="5.2" ry="9.0" fill="#E896B8" transform="rotate(271.30096508376937 145.4 119.5)"/><ellipse cx="145.4" cy="110.5" rx="5.2" ry="9.0" fill="#E896B8" transform="rotate(343.30096508376937 145.4 119.5)"/><circle cx="145.4" cy="119.5" r="2.3" fill="#FFD84D"/><ellipse cx="200.2" cy="110.2" rx="4.7" ry="8.1" fill="#F2AECB" transform="rotate(51.052355574882746 200.2 118.3)"/><ellipse cx="200.2" cy="110.2" rx="4.7" ry="8.1" fill="#F2AECB" transform="rotate(123.05235557488274 200.2 118.3)"/><ellipse cx="200.2" cy="110.2" rx="4.7" ry="8.1" fill="#F2AECB" transform="rotate(195.05235557488274 200.2 118.3)"/><ellipse cx="200.2" cy="110.2" rx="4.7" ry="8.1" fill="#F2AECB" transform="rotate(267.05235557488277 200.2 118.3)"/><ellipse cx="200.2" cy="110.2" rx="4.7" ry="8.1" fill="#F2AECB" transform="rotate(339.05235557488277 200.2 118.3)"/><circle cx="200.2" cy="118.3" r="2.1" fill="#FFD84D"/><ellipse cx="496.4" cy="106.0" rx="5.2" ry="9.0" fill="#F2AECB" transform="rotate(12.405147053451923 496.4 115.0)"/><ellipse cx="496.4" cy="106.0" rx="5.2" ry="9.0" fill="#F2AECB" transform="rotate(84.40514705345193 496.4 115.0)"/><ellipse cx="496.4" cy="106.0" rx="5.2" ry="9.0" fill="#F2AECB" transform="rotate(156.4051470534519 496.4 115.0)"/><ellipse cx="496.4" cy="106.0" rx="5.2" ry="9.0" fill="#F2AECB" transform="rotate(228.4051470534519 496.4 115.0)"/><ellipse cx="496.4" cy="106.0" rx="5.2" ry="9.0" fill="#F2AECB" transform="rotate(300.4051470534519 496.4 115.0)"/><circle cx="496.4" cy="115.0" r="2.3" fill="#FFD84D"/><ellipse cx="393.4" cy="98.1" rx="6.0" ry="10.4" fill="#FBE3EC" transform="rotate(55.234901968644145 393.4 108.5)"/><ellipse cx="393.4" cy="98.1" rx="6.0" ry="10.4" fill="#FBE3EC" transform="rotate(127.23490196864415 393.4 108.5)"/><ellipse cx="393.4" cy="98.1" rx="6.0" ry="10.4" fill="#FBE3EC" transform="rotate(199.23490196864415 393.4 108.5)"/><ellipse cx="393.4" cy="98.1" rx="6.0" ry="10.4" fill="#FBE3EC" transform="rotate(271.2349019686441 393.4 108.5)"/><ellipse cx="393.4" cy="98.1" rx="6.0" ry="10.4" fill="#FBE3EC" transform="rotate(343.2349019686441 393.4 108.5)"/><circle cx="393.4" cy="108.5" r="2.7" fill="#FFD84D"/><ellipse cx="439.4" cy="94.4" rx="5.4" ry="9.3" fill="#F2AECB" transform="rotate(6.86601852777581 439.4 103.7)"/><ellipse cx="439.4" cy="94.4" rx="5.4" ry="9.3" fill="#F2AECB" transform="rotate(78.86601852777581 439.4 103.7)"/><ellipse cx="439.4" cy="94.4" rx="5.4" ry="9.3" fill="#F2AECB" transform="rotate(150.86601852777582 439.4 103.7)"/><ellipse cx="439.4" cy="94.4" rx="5.4" ry="9.3" fill="#F2AECB" transform="rotate(222.86601852777582 439.4 103.7)"/><ellipse cx="439.4" cy="94.4" rx="5.4" ry="9.3" fill="#F2AECB" transform="rotate(294.8660185277758 439.4 103.7)"/><circle cx="439.4" cy="103.7" r="2.4" fill="#FFD84D"/><ellipse cx="264.3" cy="92.8" rx="5.8" ry="9.9" fill="#F2AECB" transform="rotate(53.78330580869326 264.3 102.7)"/><ellipse cx="264.3" cy="92.8" rx="5.8" ry="9.9" fill="#F2AECB" transform="rotate(125.78330580869326 264.3 102.7)"/><ellipse cx="264.3" cy="92.8" rx="5.8" ry="9.9" fill="#F2AECB" transform="rotate(197.78330580869326 264.3 102.7)"/><ellipse cx="264.3" cy="92.8" rx="5.8" ry="9.9" fill="#F2AECB" transform="rotate(269.7833058086933 264.3 102.7)"/><ellipse cx="264.3" cy="92.8" rx="5.8" ry="9.9" fill="#F2AECB" transform="rotate(341.7833058086933 264.3 102.7)"/><circle cx="264.3" cy="102.7" r="2.6" fill="#FFD84D"/><ellipse cx="390.2" cy="91.7" rx="4.7" ry="8.2" fill="#E896B8" transform="rotate(5.308421990038874 390.2 99.9)"/><ellipse cx="390.2" cy="91.7" rx="4.7" ry="8.2" fill="#E896B8" transform="rotate(77.30842199003888 390.2 99.9)"/><ellipse cx="390.2" cy="91.7" rx="4.7" ry="8.2" fill="#E896B8" transform="rotate(149.30842199003888 390.2 99.9)"/><ellipse cx="390.2" cy="91.7" rx="4.7" ry="8.2" fill="#E896B8" transform="rotate(221.30842199003888 390.2 99.9)"/><ellipse cx="390.2" cy="91.7" rx="4.7" ry="8.2" fill="#E896B8" transform="rotate(293.3084219900389 390.2 99.9)"/><circle cx="390.2" cy="99.9" r="2.1" fill="#FFD84D"/><ellipse cx="201.8" cy="92.5" rx="4.8" ry="8.2" fill="#F2AECB" transform="rotate(40.4098179849303 201.8 100.7)"/><ellipse cx="201.8" cy="92.5" rx="4.8" ry="8.2" fill="#F2AECB" transform="rotate(112.4098179849303 201.8 100.7)"/><ellipse cx="201.8" cy="92.5" rx="4.8" ry="8.2" fill="#F2AECB" transform="rotate(184.4098179849303 201.8 100.7)"/><ellipse cx="201.8" cy="92.5" rx="4.8" ry="8.2" fill="#F2AECB" transform="rotate(256.4098179849303 201.8 100.7)"/><ellipse cx="201.8" cy="92.5" rx="4.8" ry="8.2" fill="#F2AECB" transform="rotate(328.4098179849303 201.8 100.7)"/><circle cx="201.8" cy="100.7" r="2.1" fill="#FFD84D"/><ellipse cx="150.3" cy="81.3" rx="4.8" ry="8.2" fill="#F2AECB" transform="rotate(55.05506689155274 150.3 89.5)"/><ellipse cx="150.3" cy="81.3" rx="4.8" ry="8.2" fill="#F2AECB" transform="rotate(127.05506689155274 150.3 89.5)"/><ellipse cx="150.3" cy="81.3" rx="4.8" ry="8.2" fill="#F2AECB" transform="rotate(199.05506689155274 150.3 89.5)"/><ellipse cx="150.3" cy="81.3" rx="4.8" ry="8.2" fill="#F2AECB" transform="rotate(271.05506689155277 150.3 89.5)"/><ellipse cx="150.3" cy="81.3" rx="4.8" ry="8.2" fill="#F2AECB" transform="rotate(343.05506689155277 150.3 89.5)"/><circle cx="150.3" cy="89.5" r="2.1" fill="#FFD84D"/><ellipse cx="536.9" cy="74.2" rx="2.6" ry="4.5" fill="#FBE3EC" transform="rotate(27.217313422513662 536.9 78.7)"/><ellipse cx="536.9" cy="74.2" rx="2.6" ry="4.5" fill="#FBE3EC" transform="rotate(99.21731342251366 536.9 78.7)"/><ellipse cx="536.9" cy="74.2" rx="2.6" ry="4.5" fill="#FBE3EC" transform="rotate(171.21731342251366 536.9 78.7)"/><ellipse cx="536.9" cy="74.2" rx="2.6" ry="4.5" fill="#FBE3EC" transform="rotate(243.21731342251366 536.9 78.7)"/><ellipse cx="536.9" cy="74.2" rx="2.6" ry="4.5" fill="#FBE3EC" transform="rotate(315.21731342251366 536.9 78.7)"/><circle cx="536.9" cy="78.7" r="1.2" fill="#FFD84D"/><ellipse cx="93.6" cy="101.9" rx="3.4" ry="5.9" fill="#FBE3EC" transform="rotate(43.827497772381065 93.6 107.8)"/><ellipse cx="93.6" cy="101.9" rx="3.4" ry="5.9" fill="#FBE3EC" transform="rotate(115.82749777238107 93.6 107.8)"/><ellipse cx="93.6" cy="101.9" rx="3.4" ry="5.9" fill="#FBE3EC" transform="rotate(187.82749777238107 93.6 107.8)"/><ellipse cx="93.6" cy="101.9" rx="3.4" ry="5.9" fill="#FBE3EC" transform="rotate(259.8274977723811 93.6 107.8)"/><ellipse cx="93.6" cy="101.9" rx="3.4" ry="5.9" fill="#FBE3EC" transform="rotate(331.8274977723811 93.6 107.8)"/><circle cx="93.6" cy="107.8" r="1.5" fill="#FFD84D"/><ellipse cx="328.2" cy="127.9" rx="3.1" ry="5.4" fill="#FBE3EC" transform="rotate(35.713070421729554 328.2 133.3)"/><ellipse cx="328.2" cy="127.9" rx="3.1" ry="5.4" fill="#FBE3EC" transform="rotate(107.71307042172955 328.2 133.3)"/><ellipse cx="328.2" cy="127.9" rx="3.1" ry="5.4" fill="#FBE3EC" transform="rotate(179.71307042172955 328.2 133.3)"/><ellipse cx="328.2" cy="127.9" rx="3.1" ry="5.4" fill="#FBE3EC" transform="rotate(251.71307042172955 328.2 133.3)"/><ellipse cx="328.2" cy="127.9" rx="3.1" ry="5.4" fill="#FBE3EC" transform="rotate(323.7130704217295 328.2 133.3)"/><circle cx="328.2" cy="133.3" r="1.4" fill="#FFD84D"/><ellipse cx="318.0" cy="95.1" rx="2.7" ry="4.6" fill="#FBE3EC" transform="rotate(70.73330615933344 318.0 99.7)"/><ellipse cx="318.0" cy="95.1" rx="2.7" ry="4.6" fill="#FBE3EC" transform="rotate(142.73330615933344 318.0 99.7)"/><ellipse cx="318.0" cy="95.1" rx="2.7" ry="4.6" fill="#FBE3EC" transform="rotate(214.73330615933344 318.0 99.7)"/><ellipse cx="318.0" cy="95.1" rx="2.7" ry="4.6" fill="#FBE3EC" transform="rotate(286.73330615933344 318.0 99.7)"/><ellipse cx="318.0" cy="95.1" rx="2.7" ry="4.6" fill="#FBE3EC" transform="rotate(358.73330615933344 318.0 99.7)"/><circle cx="318.0" cy="99.7" r="1.2" fill="#FFD84D"/><ellipse cx="568.3" cy="88.7" rx="2.7" ry="4.7" fill="#FBE3EC" transform="rotate(42.40783881762486 568.3 93.4)"/><ellipse cx="568.3" cy="88.7" rx="2.7" ry="4.7" fill="#FBE3EC" transform="rotate(114.40783881762485 568.3 93.4)"/><ellipse cx="568.3" cy="88.7" rx="2.7" ry="4.7" fill="#FBE3EC" transform="rotate(186.40783881762485 568.3 93.4)"/><ellipse cx="568.3" cy="88.7" rx="2.7" ry="4.7" fill="#FBE3EC" transform="rotate(258.40783881762485 568.3 93.4)"/><ellipse cx="568.3" cy="88.7" rx="2.7" ry="4.7" fill="#FBE3EC" transform="rotate(330.40783881762485 568.3 93.4)"/><circle cx="568.3" cy="93.4" r="1.2" fill="#FFD84D"/><ellipse cx="341.8" cy="68.9" rx="2.8" ry="4.8" fill="#FBE3EC" transform="rotate(61.1877477577826 341.8 73.7)"/><ellipse cx="341.8" cy="68.9" rx="2.8" ry="4.8" fill="#FBE3EC" transform="rotate(133.1877477577826 341.8 73.7)"/><ellipse cx="341.8" cy="68.9" rx="2.8" ry="4.8" fill="#FBE3EC" transform="rotate(205.1877477577826 341.8 73.7)"/><ellipse cx="341.8" cy="68.9" rx="2.8" ry="4.8" fill="#FBE3EC" transform="rotate(277.18774775778263 341.8 73.7)"/><ellipse cx="341.8" cy="68.9" rx="2.8" ry="4.8" fill="#FBE3EC" transform="rotate(349.18774775778263 341.8 73.7)"/><circle cx="341.8" cy="73.7" r="1.2" fill="#FFD84D"/><ellipse cx="392.8" cy="106.7" rx="3.2" ry="5.4" fill="#FBE3EC" transform="rotate(17.23794759432518 392.8 112.1)"/><ellipse cx="392.8" cy="106.7" rx="3.2" ry="5.4" fill="#FBE3EC" transform="rotate(89.23794759432518 392.8 112.1)"/><ellipse cx="392.8" cy="106.7" rx="3.2" ry="5.4" fill="#FBE3EC" transform="rotate(161.2379475943252 392.8 112.1)"/><ellipse cx="392.8" cy="106.7" rx="3.2" ry="5.4" fill="#FBE3EC" transform="rotate(233.2379475943252 392.8 112.1)"/><ellipse cx="392.8" cy="106.7" rx="3.2" ry="5.4" fill="#FBE3EC" transform="rotate(305.2379475943252 392.8 112.1)"/><circle cx="392.8" cy="112.1" r="1.4" fill="#FFD84D"/><ellipse cx="218.7" cy="98.3" rx="3.1" ry="5.4" fill="#FBE3EC" transform="rotate(58.23098862169611 218.7 103.7)"/><ellipse cx="218.7" cy="98.3" rx="3.1" ry="5.4" fill="#FBE3EC" transform="rotate(130.2309886216961 218.7 103.7)"/><ellipse cx="218.7" cy="98.3" rx="3.1" ry="5.4" fill="#FBE3EC" transform="rotate(202.2309886216961 218.7 103.7)"/><ellipse cx="218.7" cy="98.3" rx="3.1" ry="5.4" fill="#FBE3EC" transform="rotate(274.2309886216961 218.7 103.7)"/><ellipse cx="218.7" cy="98.3" rx="3.1" ry="5.4" fill="#FBE3EC" transform="rotate(346.2309886216961 218.7 103.7)"/><circle cx="218.7" cy="103.7" r="1.4" fill="#FFD84D"/><ellipse cx="316.5" cy="220.5" rx="3.1" ry="5.3" fill="#FBE3EC" transform="rotate(56.05281493595716 316.5 225.7)"/><ellipse cx="316.5" cy="220.5" rx="3.1" ry="5.3" fill="#FBE3EC" transform="rotate(128.05281493595714 316.5 225.7)"/><ellipse cx="316.5" cy="220.5" rx="3.1" ry="5.3" fill="#FBE3EC" transform="rotate(200.05281493595714 316.5 225.7)"/><ellipse cx="316.5" cy="220.5" rx="3.1" ry="5.3" fill="#FBE3EC" transform="rotate(272.05281493595714 316.5 225.7)"/><ellipse cx="316.5" cy="220.5" rx="3.1" ry="5.3" fill="#FBE3EC" transform="rotate(344.05281493595714 316.5 225.7)"/><circle cx="316.5" cy="225.7" r="1.4" fill="#FFD84D"/><ellipse cx="501.2" cy="220.0" rx="2.4" ry="4.1" fill="#F2AECB" transform="rotate(18.912734893550002 501.2 224.1)"/><ellipse cx="501.2" cy="220.0" rx="2.4" ry="4.1" fill="#F2AECB" transform="rotate(90.91273489355001 501.2 224.1)"/><ellipse cx="501.2" cy="220.0" rx="2.4" ry="4.1" fill="#F2AECB" transform="rotate(162.91273489355 501.2 224.1)"/><ellipse cx="501.2" cy="220.0" rx="2.4" ry="4.1" fill="#F2AECB" transform="rotate(234.91273489355 501.2 224.1)"/><ellipse cx="501.2" cy="220.0" rx="2.4" ry="4.1" fill="#F2AECB" transform="rotate(306.91273489355 501.2 224.1)"/><circle cx="501.2" cy="224.1" r="1.1" fill="#FFD84D"/><ellipse cx="195.8" cy="224.0" rx="3.1" ry="5.4" fill="#FBE3EC" transform="rotate(36.392633154360645 195.8 229.4)"/><ellipse cx="195.8" cy="224.0" rx="3.1" ry="5.4" fill="#FBE3EC" transform="rotate(108.39263315436065 195.8 229.4)"/><ellipse cx="195.8" cy="224.0" rx="3.1" ry="5.4" fill="#FBE3EC" transform="rotate(180.39263315436065 195.8 229.4)"/><ellipse cx="195.8" cy="224.0" rx="3.1" ry="5.4" fill="#FBE3EC" transform="rotate(252.39263315436065 195.8 229.4)"/><ellipse cx="195.8" cy="224.0" rx="3.1" ry="5.4" fill="#FBE3EC" transform="rotate(324.3926331543606 195.8 229.4)"/><circle cx="195.8" cy="229.4" r="1.4" fill="#FFD84D"/><ellipse cx="240.8" cy="221.4" rx="3.0" ry="5.2" fill="#F2AECB" transform="rotate(29.863111519450605 240.8 226.6)"/><ellipse cx="240.8" cy="221.4" rx="3.0" ry="5.2" fill="#F2AECB" transform="rotate(101.8631115194506 240.8 226.6)"/><ellipse cx="240.8" cy="221.4" rx="3.0" ry="5.2" fill="#F2AECB" transform="rotate(173.8631115194506 240.8 226.6)"/><ellipse cx="240.8" cy="221.4" rx="3.0" ry="5.2" fill="#F2AECB" transform="rotate(245.8631115194506 240.8 226.6)"/><ellipse cx="240.8" cy="221.4" rx="3.0" ry="5.2" fill="#F2AECB" transform="rotate(317.8631115194506 240.8 226.6)"/><circle cx="240.8" cy="226.6" r="1.3" fill="#FFD84D"/><ellipse cx="252.6" cy="218.8" rx="3.3" ry="5.7" fill="#FBE3EC" transform="rotate(11.504738942045819 252.6 224.5)"/><ellipse cx="252.6" cy="218.8" rx="3.3" ry="5.7" fill="#FBE3EC" transform="rotate(83.50473894204582 252.6 224.5)"/><ellipse cx="252.6" cy="218.8" rx="3.3" ry="5.7" fill="#FBE3EC" transform="rotate(155.50473894204583 252.6 224.5)"/><ellipse cx="252.6" cy="218.8" rx="3.3" ry="5.7" fill="#FBE3EC" transform="rotate(227.50473894204583 252.6 224.5)"/><ellipse cx="252.6" cy="218.8" rx="3.3" ry="5.7" fill="#FBE3EC" transform="rotate(299.50473894204583 252.6 224.5)"/><circle cx="252.6" cy="224.5" r="1.5" fill="#FFD84D"/><ellipse cx="358.5" cy="218.5" rx="2.8" ry="4.9" fill="#F2AECB" transform="rotate(43.36016528266622 358.5 223.4)"/><ellipse cx="358.5" cy="218.5" rx="2.8" ry="4.9" fill="#F2AECB" transform="rotate(115.36016528266623 358.5 223.4)"/><ellipse cx="358.5" cy="218.5" rx="2.8" ry="4.9" fill="#F2AECB" transform="rotate(187.36016528266623 358.5 223.4)"/><ellipse cx="358.5" cy="218.5" rx="2.8" ry="4.9" fill="#F2AECB" transform="rotate(259.36016528266623 358.5 223.4)"/><ellipse cx="358.5" cy="218.5" rx="2.8" ry="4.9" fill="#F2AECB" transform="rotate(331.36016528266623 358.5 223.4)"/><circle cx="358.5" cy="223.4" r="1.3" fill="#FFD84D"/><ellipse cx="394.8" cy="225.3" rx="2.5" ry="4.3" fill="#FBE3EC" transform="rotate(59.23011985885676 394.8 229.6)"/><ellipse cx="394.8" cy="225.3" rx="2.5" ry="4.3" fill="#FBE3EC" transform="rotate(131.23011985885677 394.8 229.6)"/><ellipse cx="394.8" cy="225.3" rx="2.5" ry="4.3" fill="#FBE3EC" transform="rotate(203.23011985885677 394.8 229.6)"/><ellipse cx="394.8" cy="225.3" rx="2.5" ry="4.3" fill="#FBE3EC" transform="rotate(275.23011985885677 394.8 229.6)"/><ellipse cx="394.8" cy="225.3" rx="2.5" ry="4.3" fill="#FBE3EC" transform="rotate(347.23011985885677 394.8 229.6)"/><circle cx="394.8" cy="229.6" r="1.1" fill="#FFD84D"/></svg>